solid OpenSCAD_Model
  facet normal 0.998176 0.0603793 0
    outer loop
      vertex 5 0 1.5
      vertex 4.96354 0.602683 -1.5
      vertex 4.96354 0.602683 1.5
    endloop
  endfacet
  facet normal 0.998176 0.0603793 0
    outer loop
      vertex 4.96354 0.602683 -1.5
      vertex 5 0 1.5
      vertex 5 0 -1.5
    endloop
  endfacet
  facet normal -0.998176 0.0603793 0
    outer loop
      vertex -5 0 -1.5
      vertex -4.96354 0.602683 1.5
      vertex -4.96354 0.602683 -1.5
    endloop
  endfacet
  facet normal -0.998176 0.0603793 0
    outer loop
      vertex -4.96354 0.602683 1.5
      vertex -5 0 -1.5
      vertex -5 0 1.5
    endloop
  endfacet
  facet normal 0.0603793 0.998176 -0
    outer loop
      vertex 0.602683 4.96354 -1.5
      vertex 0 5 1.5
      vertex 0.602683 4.96354 1.5
    endloop
  endfacet
  facet normal 0.0603793 0.998176 0
    outer loop
      vertex 0 5 1.5
      vertex 0.602683 4.96354 -1.5
      vertex 0 5 -1.5
    endloop
  endfacet
  facet normal -0.0603793 -0.998176 0
    outer loop
      vertex -0.602683 -4.96354 -1.5
      vertex 0 -5 1.5
      vertex -0.602683 -4.96354 1.5
    endloop
  endfacet
  facet normal -0.0603793 -0.998176 -0
    outer loop
      vertex 0 -5 1.5
      vertex -0.602683 -4.96354 -1.5
      vertex 0 -5 -1.5
    endloop
  endfacet
  facet normal -0.787184 -0.616718 0
    outer loop
      vertex -3.74255 -3.31561 -1.5
      vertex -4.11492 -2.84032 1.5
      vertex -4.11492 -2.84032 -1.5
    endloop
  endfacet
  facet normal -0.787184 -0.616718 0
    outer loop
      vertex -4.11492 -2.84032 1.5
      vertex -3.74255 -3.31561 -1.5
      vertex -3.74255 -3.31561 1.5
    endloop
  endfacet
  facet normal 0.707107 0.707107 0
    outer loop
      vertex 3.74255 3.31561 1.5
      vertex 3.31561 3.74255 -1.5
      vertex 3.31561 3.74255 1.5
    endloop
  endfacet
  facet normal 0.707107 0.707107 0
    outer loop
      vertex 3.31561 3.74255 -1.5
      vertex 3.74255 3.31561 1.5
      vertex 3.74255 3.31561 -1.5
    endloop
  endfacet
  facet normal -0.616718 0.787184 0
    outer loop
      vertex -2.84032 4.11492 -1.5
      vertex -3.31561 3.74255 1.5
      vertex -2.84032 4.11492 1.5
    endloop
  endfacet
  facet normal -0.616718 0.787184 0
    outer loop
      vertex -3.31561 3.74255 1.5
      vertex -2.84032 4.11492 -1.5
      vertex -3.31561 3.74255 -1.5
    endloop
  endfacet
  facet normal -0.297504 0.954721 0
    outer loop
      vertex -1.19658 4.85471 -1.5
      vertex -1.77302 4.67508 1.5
      vertex -1.19658 4.85471 1.5
    endloop
  endfacet
  facet normal -0.297504 0.954721 0
    outer loop
      vertex -1.77302 4.67508 1.5
      vertex -1.19658 4.85471 -1.5
      vertex -1.77302 4.67508 -1.5
    endloop
  endfacet
  facet normal 0.9119 0.410412 0
    outer loop
      vertex 4.67508 1.77302 1.5
      vertex 4.42728 2.32362 -1.5
      vertex 4.42728 2.32362 1.5
    endloop
  endfacet
  facet normal 0.9119 0.410412 0
    outer loop
      vertex 4.42728 2.32362 -1.5
      vertex 4.67508 1.77302 1.5
      vertex 4.67508 1.77302 -1.5
    endloop
  endfacet
  facet normal 0.98362 0.180255 0
    outer loop
      vertex 4.96354 0.602683 1.5
      vertex 4.85471 1.19658 -1.5
      vertex 4.85471 1.19658 1.5
    endloop
  endfacet
  facet normal 0.98362 0.180255 0
    outer loop
      vertex 4.85471 1.19658 -1.5
      vertex 4.96354 0.602683 1.5
      vertex 4.96354 0.602683 -1.5
    endloop
  endfacet
  facet normal 0.410412 0.9119 -0
    outer loop
      vertex 2.32362 4.42728 -1.5
      vertex 1.77302 4.67508 1.5
      vertex 2.32362 4.42728 1.5
    endloop
  endfacet
  facet normal 0.410412 0.9119 0
    outer loop
      vertex 1.77302 4.67508 1.5
      vertex 2.32362 4.42728 -1.5
      vertex 1.77302 4.67508 -1.5
    endloop
  endfacet
  facet normal 0.297504 0.954721 -0
    outer loop
      vertex 1.77302 4.67508 -1.5
      vertex 1.19658 4.85471 1.5
      vertex 1.77302 4.67508 1.5
    endloop
  endfacet
  facet normal 0.297504 0.954721 0
    outer loop
      vertex 1.19658 4.85471 1.5
      vertex 1.77302 4.67508 -1.5
      vertex 1.19658 4.85471 -1.5
    endloop
  endfacet
  facet normal 0.517337 0.855782 -0
    outer loop
      vertex 2.84032 4.11492 -1.5
      vertex 2.32362 4.42728 1.5
      vertex 2.84032 4.11492 1.5
    endloop
  endfacet
  facet normal 0.517337 0.855782 0
    outer loop
      vertex 2.32362 4.42728 1.5
      vertex 2.84032 4.11492 -1.5
      vertex 2.32362 4.42728 -1.5
    endloop
  endfacet
  facet normal -0.855782 0.517337 0
    outer loop
      vertex -4.42728 2.32362 -1.5
      vertex -4.11492 2.84032 1.5
      vertex -4.11492 2.84032 -1.5
    endloop
  endfacet
  facet normal -0.855782 0.517337 0
    outer loop
      vertex -4.11492 2.84032 1.5
      vertex -4.42728 2.32362 -1.5
      vertex -4.42728 2.32362 1.5
    endloop
  endfacet
  facet normal -0.707107 0.707107 0
    outer loop
      vertex -3.74255 3.31561 -1.5
      vertex -3.31561 3.74255 1.5
      vertex -3.31561 3.74255 -1.5
    endloop
  endfacet
  facet normal -0.707107 0.707107 0
    outer loop
      vertex -3.31561 3.74255 1.5
      vertex -3.74255 3.31561 -1.5
      vertex -3.74255 3.31561 1.5
    endloop
  endfacet
  facet normal -0.410412 0.9119 0
    outer loop
      vertex -1.77302 4.67508 -1.5
      vertex -2.32362 4.42728 1.5
      vertex -1.77302 4.67508 1.5
    endloop
  endfacet
  facet normal -0.410412 0.9119 0
    outer loop
      vertex -2.32362 4.42728 1.5
      vertex -1.77302 4.67508 -1.5
      vertex -2.32362 4.42728 -1.5
    endloop
  endfacet
  facet normal -0.180255 0.98362 0
    outer loop
      vertex -0.602683 4.96354 -1.5
      vertex -1.19658 4.85471 1.5
      vertex -0.602683 4.96354 1.5
    endloop
  endfacet
  facet normal -0.180255 0.98362 0
    outer loop
      vertex -1.19658 4.85471 1.5
      vertex -0.602683 4.96354 -1.5
      vertex -1.19658 4.85471 -1.5
    endloop
  endfacet
  facet normal 0.954721 -0.297504 0
    outer loop
      vertex 4.67508 -1.77302 1.5
      vertex 4.85471 -1.19658 -1.5
      vertex 4.85471 -1.19658 1.5
    endloop
  endfacet
  facet normal 0.954721 -0.297504 0
    outer loop
      vertex 4.85471 -1.19658 -1.5
      vertex 4.67508 -1.77302 1.5
      vertex 4.67508 -1.77302 -1.5
    endloop
  endfacet
  facet normal 0.98362 -0.180255 0
    outer loop
      vertex 4.85471 -1.19658 1.5
      vertex 4.96354 -0.602683 -1.5
      vertex 4.96354 -0.602683 1.5
    endloop
  endfacet
  facet normal 0.98362 -0.180255 0
    outer loop
      vertex 4.96354 -0.602683 -1.5
      vertex 4.85471 -1.19658 1.5
      vertex 4.85471 -1.19658 -1.5
    endloop
  endfacet
  facet normal -0.707107 -0.707107 0
    outer loop
      vertex -3.31561 -3.74255 -1.5
      vertex -3.74255 -3.31561 1.5
      vertex -3.74255 -3.31561 -1.5
    endloop
  endfacet
  facet normal -0.707107 -0.707107 0
    outer loop
      vertex -3.74255 -3.31561 1.5
      vertex -3.31561 -3.74255 -1.5
      vertex -3.31561 -3.74255 1.5
    endloop
  endfacet
  facet normal -0.9119 -0.410412 0
    outer loop
      vertex -4.42728 -2.32362 -1.5
      vertex -4.67508 -1.77302 1.5
      vertex -4.67508 -1.77302 -1.5
    endloop
  endfacet
  facet normal -0.9119 -0.410412 0
    outer loop
      vertex -4.67508 -1.77302 1.5
      vertex -4.42728 -2.32362 -1.5
      vertex -4.42728 -2.32362 1.5
    endloop
  endfacet
  facet normal 0 0 -1
    outer loop
      vertex 1.8 0 -1.5
      vertex 5 0 -1.5
      vertex 4.96354 -0.602683 -1.5
    endloop
  endfacet
  facet normal 0 0 -1
    outer loop
      vertex 1.78688 -0.216966 -1.5
      vertex 4.96354 -0.602683 -1.5
      vertex 4.85471 -1.19658 -1.5
    endloop
  endfacet
  facet normal 0 0 -1
    outer loop
      vertex 5 0 -1.5
      vertex 1.8 0 -1.5
      vertex 4.96354 0.602683 -1.5
    endloop
  endfacet
  facet normal 0 0 -1
    outer loop
      vertex 1.74769 -0.430768 -1.5
      vertex 4.85471 -1.19658 -1.5
      vertex 4.67508 -1.77302 -1.5
    endloop
  endfacet
  facet normal 0 0 -1
    outer loop
      vertex 1.78688 0.216966 -1.5
      vertex 4.96354 0.602683 -1.5
      vertex 1.8 0 -1.5
    endloop
  endfacet
  facet normal 0 0 -1
    outer loop
      vertex 1.68303 -0.638288 -1.5
      vertex 4.67508 -1.77302 -1.5
      vertex 4.42728 -2.32362 -1.5
    endloop
  endfacet
  facet normal -0 0 -1
    outer loop
      vertex 4.96354 0.602683 -1.5
      vertex 1.78688 0.216966 -1.5
      vertex 4.85471 1.19658 -1.5
    endloop
  endfacet
  facet normal 0 0 -1
    outer loop
      vertex 1.59382 -0.836501 -1.5
      vertex 4.42728 -2.32362 -1.5
      vertex 4.11492 -2.84032 -1.5
    endloop
  endfacet
  facet normal 0 0 -1
    outer loop
      vertex 1.74769 0.430768 -1.5
      vertex 4.85471 1.19658 -1.5
      vertex 1.78688 0.216966 -1.5
    endloop
  endfacet
  facet normal 0 0 -1
    outer loop
      vertex 1.48137 -1.02252 -1.5
      vertex 4.11492 -2.84032 -1.5
      vertex 3.74255 -3.31561 -1.5
    endloop
  endfacet
  facet normal -0 0 -1
    outer loop
      vertex 4.85471 1.19658 -1.5
      vertex 1.74769 0.430768 -1.5
      vertex 4.67508 1.77302 -1.5
    endloop
  endfacet
  facet normal 0 0 -1
    outer loop
      vertex 1.34732 -1.19362 -1.5
      vertex 3.74255 -3.31561 -1.5
      vertex 3.31561 -3.74255 -1.5
    endloop
  endfacet
  facet normal 0 0 -1
    outer loop
      vertex 1.68303 0.638288 -1.5
      vertex 4.67508 1.77302 -1.5
      vertex 1.74769 0.430768 -1.5
    endloop
  endfacet
  facet normal 0 0 -1
    outer loop
      vertex 1.19362 -1.34732 -1.5
      vertex 3.31561 -3.74255 -1.5
      vertex 2.84032 -4.11492 -1.5
    endloop
  endfacet
  facet normal -0 0 -1
    outer loop
      vertex 4.67508 1.77302 -1.5
      vertex 1.68303 0.638288 -1.5
      vertex 4.42728 2.32362 -1.5
    endloop
  endfacet
  facet normal 0 0 -1
    outer loop
      vertex 1.02252 -1.48137 -1.5
      vertex 2.84032 -4.11492 -1.5
      vertex 2.32362 -4.42728 -1.5
    endloop
  endfacet
  facet normal 0 0 -1
    outer loop
      vertex 1.59382 0.836501 -1.5
      vertex 4.42728 2.32362 -1.5
      vertex 1.68303 0.638288 -1.5
    endloop
  endfacet
  facet normal -0 0 -1
    outer loop
      vertex 4.42728 2.32362 -1.5
      vertex 1.59382 0.836501 -1.5
      vertex 4.11492 2.84032 -1.5
    endloop
  endfacet
  facet normal 0 0 -1
    outer loop
      vertex 4.96354 -0.602683 -1.5
      vertex 1.78688 -0.216966 -1.5
      vertex 1.8 0 -1.5
    endloop
  endfacet
  facet normal 0 0 -1
    outer loop
      vertex 0.836501 -1.59382 -1.5
      vertex 2.32362 -4.42728 -1.5
      vertex 1.77302 -4.67508 -1.5
    endloop
  endfacet
  facet normal 0 0 -1
    outer loop
      vertex 4.85471 -1.19658 -1.5
      vertex 1.74769 -0.430768 -1.5
      vertex 1.78688 -0.216966 -1.5
    endloop
  endfacet
  facet normal 0 0 -1
    outer loop
      vertex 4.67508 -1.77302 -1.5
      vertex 1.68303 -0.638288 -1.5
      vertex 1.74769 -0.430768 -1.5
    endloop
  endfacet
  facet normal 0 0 -1
    outer loop
      vertex 4.42728 -2.32362 -1.5
      vertex 1.59382 -0.836501 -1.5
      vertex 1.68303 -0.638288 -1.5
    endloop
  endfacet
  facet normal 0 0 -1
    outer loop
      vertex 4.11492 -2.84032 -1.5
      vertex 1.48137 -1.02252 -1.5
      vertex 1.59382 -0.836501 -1.5
    endloop
  endfacet
  facet normal 0 0 -1
    outer loop
      vertex 3.74255 -3.31561 -1.5
      vertex 1.34732 -1.19362 -1.5
      vertex 1.48137 -1.02252 -1.5
    endloop
  endfacet
  facet normal 0 0 -1
    outer loop
      vertex 0.638288 -1.68303 -1.5
      vertex 1.77302 -4.67508 -1.5
      vertex 1.19658 -4.85471 -1.5
    endloop
  endfacet
  facet normal 0 0 -1
    outer loop
      vertex 3.31561 -3.74255 -1.5
      vertex 1.19362 -1.34732 -1.5
      vertex 1.34732 -1.19362 -1.5
    endloop
  endfacet
  facet normal 0 0 -1
    outer loop
      vertex 2.84032 -4.11492 -1.5
      vertex 1.02252 -1.48137 -1.5
      vertex 1.19362 -1.34732 -1.5
    endloop
  endfacet
  facet normal 0 0 -1
    outer loop
      vertex 2.32362 -4.42728 -1.5
      vertex 0.836501 -1.59382 -1.5
      vertex 1.02252 -1.48137 -1.5
    endloop
  endfacet
  facet normal 0 0 -1
    outer loop
      vertex 1.77302 -4.67508 -1.5
      vertex 0.638288 -1.68303 -1.5
      vertex 0.836501 -1.59382 -1.5
    endloop
  endfacet
  facet normal 0 0 -1
    outer loop
      vertex 0.430768 -1.74769 -1.5
      vertex 1.19658 -4.85471 -1.5
      vertex 0.602683 -4.96354 -1.5
    endloop
  endfacet
  facet normal 0 0 -1
    outer loop
      vertex 1.19658 -4.85471 -1.5
      vertex 0.430768 -1.74769 -1.5
      vertex 0.638288 -1.68303 -1.5
    endloop
  endfacet
  facet normal 0 0 -1
    outer loop
      vertex 0.602683 -4.96354 -1.5
      vertex 0.216966 -1.78688 -1.5
      vertex 0.430768 -1.74769 -1.5
    endloop
  endfacet
  facet normal 0 0 -1
    outer loop
      vertex 0 -5 -1.5
      vertex 0.216966 -1.78688 -1.5
      vertex 0.602683 -4.96354 -1.5
    endloop
  endfacet
  facet normal 0 0 -1
    outer loop
      vertex 0 -5 -1.5
      vertex 0 -1.8 -1.5
      vertex 0.216966 -1.78688 -1.5
    endloop
  endfacet
  facet normal 0 0 -1
    outer loop
      vertex 0 -5 -1.5
      vertex -0.216966 -1.78688 -1.5
      vertex 0 -1.8 -1.5
    endloop
  endfacet
  facet normal 0 0 -1
    outer loop
      vertex -0.602683 -4.96354 -1.5
      vertex -0.216966 -1.78688 -1.5
      vertex 0 -5 -1.5
    endloop
  endfacet
  facet normal -0 0 -1
    outer loop
      vertex -0.216966 -1.78688 -1.5
      vertex -0.602683 -4.96354 -1.5
      vertex -0.430768 -1.74769 -1.5
    endloop
  endfacet
  facet normal 0 0 -1
    outer loop
      vertex -1.19658 -4.85471 -1.5
      vertex -0.430768 -1.74769 -1.5
      vertex -0.602683 -4.96354 -1.5
    endloop
  endfacet
  facet normal -0 0 -1
    outer loop
      vertex -0.430768 -1.74769 -1.5
      vertex -1.19658 -4.85471 -1.5
      vertex -0.638288 -1.68303 -1.5
    endloop
  endfacet
  facet normal 0 0 -1
    outer loop
      vertex -1.77302 -4.67508 -1.5
      vertex -0.638288 -1.68303 -1.5
      vertex -1.19658 -4.85471 -1.5
    endloop
  endfacet
  facet normal -0 0 -1
    outer loop
      vertex -0.638288 -1.68303 -1.5
      vertex -1.77302 -4.67508 -1.5
      vertex -0.836501 -1.59382 -1.5
    endloop
  endfacet
  facet normal 0 0 -1
    outer loop
      vertex -2.32362 -4.42728 -1.5
      vertex -0.836501 -1.59382 -1.5
      vertex -1.77302 -4.67508 -1.5
    endloop
  endfacet
  facet normal -0 0 -1
    outer loop
      vertex -0.836501 -1.59382 -1.5
      vertex -2.32362 -4.42728 -1.5
      vertex -1.02252 -1.48137 -1.5
    endloop
  endfacet
  facet normal 0 0 -1
    outer loop
      vertex -2.84032 -4.11492 -1.5
      vertex -1.02252 -1.48137 -1.5
      vertex -2.32362 -4.42728 -1.5
    endloop
  endfacet
  facet normal -0 0 -1
    outer loop
      vertex -1.02252 -1.48137 -1.5
      vertex -2.84032 -4.11492 -1.5
      vertex -1.19362 -1.34732 -1.5
    endloop
  endfacet
  facet normal 0 0 -1
    outer loop
      vertex -3.31561 -3.74255 -1.5
      vertex -1.19362 -1.34732 -1.5
      vertex -2.84032 -4.11492 -1.5
    endloop
  endfacet
  facet normal -0 0 -1
    outer loop
      vertex -1.19362 -1.34732 -1.5
      vertex -3.31561 -3.74255 -1.5
      vertex -1.34732 -1.19362 -1.5
    endloop
  endfacet
  facet normal 0 0 -1
    outer loop
      vertex -3.74255 -3.31561 -1.5
      vertex -1.34732 -1.19362 -1.5
      vertex -3.31561 -3.74255 -1.5
    endloop
  endfacet
  facet normal -0 0 -1
    outer loop
      vertex -1.34732 -1.19362 -1.5
      vertex -3.74255 -3.31561 -1.5
      vertex -1.48137 -1.02252 -1.5
    endloop
  endfacet
  facet normal 0 0 -1
    outer loop
      vertex -4.11492 -2.84032 -1.5
      vertex -1.48137 -1.02252 -1.5
      vertex -3.74255 -3.31561 -1.5
    endloop
  endfacet
  facet normal -0 0 -1
    outer loop
      vertex -1.48137 -1.02252 -1.5
      vertex -4.11492 -2.84032 -1.5
      vertex -1.59382 -0.836501 -1.5
    endloop
  endfacet
  facet normal 0 0 -1
    outer loop
      vertex 1.48137 1.02252 -1.5
      vertex 4.11492 2.84032 -1.5
      vertex 1.59382 0.836501 -1.5
    endloop
  endfacet
  facet normal -0 0 -1
    outer loop
      vertex 4.11492 2.84032 -1.5
      vertex 1.48137 1.02252 -1.5
      vertex 3.74255 3.31561 -1.5
    endloop
  endfacet
  facet normal 0 0 -1
    outer loop
      vertex 1.34732 1.19362 -1.5
      vertex 3.74255 3.31561 -1.5
      vertex 1.48137 1.02252 -1.5
    endloop
  endfacet
  facet normal -0 0 -1
    outer loop
      vertex 3.74255 3.31561 -1.5
      vertex 1.34732 1.19362 -1.5
      vertex 3.31561 3.74255 -1.5
    endloop
  endfacet
  facet normal 0 0 -1
    outer loop
      vertex 1.19362 1.34732 -1.5
      vertex 3.31561 3.74255 -1.5
      vertex 1.34732 1.19362 -1.5
    endloop
  endfacet
  facet normal -0 0 -1
    outer loop
      vertex 3.31561 3.74255 -1.5
      vertex 1.19362 1.34732 -1.5
      vertex 2.84032 4.11492 -1.5
    endloop
  endfacet
  facet normal 0 0 -1
    outer loop
      vertex 1.02252 1.48137 -1.5
      vertex 2.84032 4.11492 -1.5
      vertex 1.19362 1.34732 -1.5
    endloop
  endfacet
  facet normal -0 0 -1
    outer loop
      vertex 2.84032 4.11492 -1.5
      vertex 1.02252 1.48137 -1.5
      vertex 2.32362 4.42728 -1.5
    endloop
  endfacet
  facet normal 0 0 -1
    outer loop
      vertex 0.836501 1.59382 -1.5
      vertex 2.32362 4.42728 -1.5
      vertex 1.02252 1.48137 -1.5
    endloop
  endfacet
  facet normal -0 0 -1
    outer loop
      vertex 2.32362 4.42728 -1.5
      vertex 0.836501 1.59382 -1.5
      vertex 1.77302 4.67508 -1.5
    endloop
  endfacet
  facet normal 0 0 -1
    outer loop
      vertex 0.638288 1.68303 -1.5
      vertex 1.77302 4.67508 -1.5
      vertex 0.836501 1.59382 -1.5
    endloop
  endfacet
  facet normal -0 0 -1
    outer loop
      vertex 1.77302 4.67508 -1.5
      vertex 0.638288 1.68303 -1.5
      vertex 1.19658 4.85471 -1.5
    endloop
  endfacet
  facet normal 0 0 -1
    outer loop
      vertex 0.430768 1.74769 -1.5
      vertex 1.19658 4.85471 -1.5
      vertex 0.638288 1.68303 -1.5
    endloop
  endfacet
  facet normal -0 0 -1
    outer loop
      vertex 1.19658 4.85471 -1.5
      vertex 0.430768 1.74769 -1.5
      vertex 0.602683 4.96354 -1.5
    endloop
  endfacet
  facet normal 0 0 -1
    outer loop
      vertex 0.216966 1.78688 -1.5
      vertex 0.602683 4.96354 -1.5
      vertex 0.430768 1.74769 -1.5
    endloop
  endfacet
  facet normal 0 0 -1
    outer loop
      vertex 0 1.8 -1.5
      vertex 0.602683 4.96354 -1.5
      vertex 0.216966 1.78688 -1.5
    endloop
  endfacet
  facet normal 0 0 -1
    outer loop
      vertex 0 1.8 -1.5
      vertex 0 5 -1.5
      vertex 0.602683 4.96354 -1.5
    endloop
  endfacet
  facet normal 0 0 -1
    outer loop
      vertex -0.216966 1.78688 -1.5
      vertex 0 5 -1.5
      vertex 0 1.8 -1.5
    endloop
  endfacet
  facet normal 0 0 -1
    outer loop
      vertex -0.602683 4.96354 -1.5
      vertex -0.216966 1.78688 -1.5
      vertex -0.430768 1.74769 -1.5
    endloop
  endfacet
  facet normal 0 0 -1
    outer loop
      vertex -0.216966 1.78688 -1.5
      vertex -0.602683 4.96354 -1.5
      vertex 0 5 -1.5
    endloop
  endfacet
  facet normal 0 0 -1
    outer loop
      vertex -1.19658 4.85471 -1.5
      vertex -0.430768 1.74769 -1.5
      vertex -0.638288 1.68303 -1.5
    endloop
  endfacet
  facet normal 0 0 -1
    outer loop
      vertex -1.77302 4.67508 -1.5
      vertex -0.638288 1.68303 -1.5
      vertex -0.836501 1.59382 -1.5
    endloop
  endfacet
  facet normal 0 0 -1
    outer loop
      vertex -2.32362 4.42728 -1.5
      vertex -0.836501 1.59382 -1.5
      vertex -1.02252 1.48137 -1.5
    endloop
  endfacet
  facet normal 0 0 -1
    outer loop
      vertex -2.84032 4.11492 -1.5
      vertex -1.02252 1.48137 -1.5
      vertex -1.19362 1.34732 -1.5
    endloop
  endfacet
  facet normal 0 0 -1
    outer loop
      vertex -0.430768 1.74769 -1.5
      vertex -1.19658 4.85471 -1.5
      vertex -0.602683 4.96354 -1.5
    endloop
  endfacet
  facet normal 0 0 -1
    outer loop
      vertex -3.31561 3.74255 -1.5
      vertex -1.19362 1.34732 -1.5
      vertex -1.34732 1.19362 -1.5
    endloop
  endfacet
  facet normal 0 0 -1
    outer loop
      vertex -3.74255 3.31561 -1.5
      vertex -1.34732 1.19362 -1.5
      vertex -1.48137 1.02252 -1.5
    endloop
  endfacet
  facet normal 0 0 -1
    outer loop
      vertex -4.11492 2.84032 -1.5
      vertex -1.48137 1.02252 -1.5
      vertex -1.59382 0.836501 -1.5
    endloop
  endfacet
  facet normal 0 0 -1
    outer loop
      vertex -4.42728 2.32362 -1.5
      vertex -1.59382 0.836501 -1.5
      vertex -1.68303 0.638288 -1.5
    endloop
  endfacet
  facet normal 0 0 -1
    outer loop
      vertex -4.67508 1.77302 -1.5
      vertex -1.68303 0.638288 -1.5
      vertex -1.74769 0.430768 -1.5
    endloop
  endfacet
  facet normal 0 0 -1
    outer loop
      vertex -0.638288 1.68303 -1.5
      vertex -1.77302 4.67508 -1.5
      vertex -1.19658 4.85471 -1.5
    endloop
  endfacet
  facet normal 0 0 -1
    outer loop
      vertex -4.85471 1.19658 -1.5
      vertex -1.74769 0.430768 -1.5
      vertex -1.78688 0.216966 -1.5
    endloop
  endfacet
  facet normal 0 0 -1
    outer loop
      vertex -4.96354 0.602683 -1.5
      vertex -1.78688 0.216966 -1.5
      vertex -1.8 0 -1.5
    endloop
  endfacet
  facet normal 0 0 -1
    outer loop
      vertex -4.42728 -2.32362 -1.5
      vertex -1.59382 -0.836501 -1.5
      vertex -4.11492 -2.84032 -1.5
    endloop
  endfacet
  facet normal 0 0 -1
    outer loop
      vertex -0.836501 1.59382 -1.5
      vertex -2.32362 4.42728 -1.5
      vertex -1.77302 4.67508 -1.5
    endloop
  endfacet
  facet normal -0 0 -1
    outer loop
      vertex -1.59382 -0.836501 -1.5
      vertex -4.42728 -2.32362 -1.5
      vertex -1.68303 -0.638288 -1.5
    endloop
  endfacet
  facet normal 0 0 -1
    outer loop
      vertex -1.02252 1.48137 -1.5
      vertex -2.84032 4.11492 -1.5
      vertex -2.32362 4.42728 -1.5
    endloop
  endfacet
  facet normal 0 0 -1
    outer loop
      vertex -4.67508 -1.77302 -1.5
      vertex -1.68303 -0.638288 -1.5
      vertex -4.42728 -2.32362 -1.5
    endloop
  endfacet
  facet normal 0 0 -1
    outer loop
      vertex -1.19362 1.34732 -1.5
      vertex -3.31561 3.74255 -1.5
      vertex -2.84032 4.11492 -1.5
    endloop
  endfacet
  facet normal -0 0 -1
    outer loop
      vertex -1.68303 -0.638288 -1.5
      vertex -4.67508 -1.77302 -1.5
      vertex -1.74769 -0.430768 -1.5
    endloop
  endfacet
  facet normal 0 0 -1
    outer loop
      vertex -1.34732 1.19362 -1.5
      vertex -3.74255 3.31561 -1.5
      vertex -3.31561 3.74255 -1.5
    endloop
  endfacet
  facet normal 0 0 -1
    outer loop
      vertex -4.85471 -1.19658 -1.5
      vertex -1.74769 -0.430768 -1.5
      vertex -4.67508 -1.77302 -1.5
    endloop
  endfacet
  facet normal 0 0 -1
    outer loop
      vertex -1.48137 1.02252 -1.5
      vertex -4.11492 2.84032 -1.5
      vertex -3.74255 3.31561 -1.5
    endloop
  endfacet
  facet normal -0 0 -1
    outer loop
      vertex -1.74769 -0.430768 -1.5
      vertex -4.85471 -1.19658 -1.5
      vertex -1.78688 -0.216966 -1.5
    endloop
  endfacet
  facet normal 0 0 -1
    outer loop
      vertex -1.59382 0.836501 -1.5
      vertex -4.42728 2.32362 -1.5
      vertex -4.11492 2.84032 -1.5
    endloop
  endfacet
  facet normal 0 0 -1
    outer loop
      vertex -4.96354 -0.602683 -1.5
      vertex -1.78688 -0.216966 -1.5
      vertex -4.85471 -1.19658 -1.5
    endloop
  endfacet
  facet normal 0 0 -1
    outer loop
      vertex -1.68303 0.638288 -1.5
      vertex -4.67508 1.77302 -1.5
      vertex -4.42728 2.32362 -1.5
    endloop
  endfacet
  facet normal -0 0 -1
    outer loop
      vertex -1.78688 -0.216966 -1.5
      vertex -4.96354 -0.602683 -1.5
      vertex -1.8 0 -1.5
    endloop
  endfacet
  facet normal 0 0 -1
    outer loop
      vertex -1.74769 0.430768 -1.5
      vertex -4.85471 1.19658 -1.5
      vertex -4.67508 1.77302 -1.5
    endloop
  endfacet
  facet normal 0 0 -1
    outer loop
      vertex -5 0 -1.5
      vertex -1.8 0 -1.5
      vertex -4.96354 -0.602683 -1.5
    endloop
  endfacet
  facet normal 0 0 -1
    outer loop
      vertex -1.78688 0.216966 -1.5
      vertex -4.96354 0.602683 -1.5
      vertex -4.85471 1.19658 -1.5
    endloop
  endfacet
  facet normal 0 0 -1
    outer loop
      vertex -1.8 0 -1.5
      vertex -5 0 -1.5
      vertex -4.96354 0.602683 -1.5
    endloop
  endfacet
  facet normal 0.954721 0.297504 0
    outer loop
      vertex 4.85471 1.19658 1.5
      vertex 4.67508 1.77302 -1.5
      vertex 4.67508 1.77302 1.5
    endloop
  endfacet
  facet normal 0.954721 0.297504 0
    outer loop
      vertex 4.67508 1.77302 -1.5
      vertex 4.85471 1.19658 1.5
      vertex 4.85471 1.19658 -1.5
    endloop
  endfacet
  facet normal 0.787184 0.616718 0
    outer loop
      vertex 4.11492 2.84032 1.5
      vertex 3.74255 3.31561 -1.5
      vertex 3.74255 3.31561 1.5
    endloop
  endfacet
  facet normal 0.787184 0.616718 0
    outer loop
      vertex 3.74255 3.31561 -1.5
      vertex 4.11492 2.84032 1.5
      vertex 4.11492 2.84032 -1.5
    endloop
  endfacet
  facet normal 0.855782 0.517337 0
    outer loop
      vertex 4.42728 2.32362 1.5
      vertex 4.11492 2.84032 -1.5
      vertex 4.11492 2.84032 1.5
    endloop
  endfacet
  facet normal 0.855782 0.517337 0
    outer loop
      vertex 4.11492 2.84032 -1.5
      vertex 4.42728 2.32362 1.5
      vertex 4.42728 2.32362 -1.5
    endloop
  endfacet
  facet normal 0.180255 0.98362 -0
    outer loop
      vertex 1.19658 4.85471 -1.5
      vertex 0.602683 4.96354 1.5
      vertex 1.19658 4.85471 1.5
    endloop
  endfacet
  facet normal 0.180255 0.98362 0
    outer loop
      vertex 0.602683 4.96354 1.5
      vertex 1.19658 4.85471 -1.5
      vertex 0.602683 4.96354 -1.5
    endloop
  endfacet
  facet normal 0.616718 0.787184 -0
    outer loop
      vertex 3.31561 3.74255 -1.5
      vertex 2.84032 4.11492 1.5
      vertex 3.31561 3.74255 1.5
    endloop
  endfacet
  facet normal 0.616718 0.787184 0
    outer loop
      vertex 2.84032 4.11492 1.5
      vertex 3.31561 3.74255 -1.5
      vertex 2.84032 4.11492 -1.5
    endloop
  endfacet
  facet normal -0.954721 0.297504 0
    outer loop
      vertex -4.85471 1.19658 -1.5
      vertex -4.67508 1.77302 1.5
      vertex -4.67508 1.77302 -1.5
    endloop
  endfacet
  facet normal -0.954721 0.297504 0
    outer loop
      vertex -4.67508 1.77302 1.5
      vertex -4.85471 1.19658 -1.5
      vertex -4.85471 1.19658 1.5
    endloop
  endfacet
  facet normal -0.787184 0.616718 0
    outer loop
      vertex -4.11492 2.84032 -1.5
      vertex -3.74255 3.31561 1.5
      vertex -3.74255 3.31561 -1.5
    endloop
  endfacet
  facet normal -0.787184 0.616718 0
    outer loop
      vertex -3.74255 3.31561 1.5
      vertex -4.11492 2.84032 -1.5
      vertex -4.11492 2.84032 1.5
    endloop
  endfacet
  facet normal -0.9119 0.410412 0
    outer loop
      vertex -4.67508 1.77302 -1.5
      vertex -4.42728 2.32362 1.5
      vertex -4.42728 2.32362 -1.5
    endloop
  endfacet
  facet normal -0.9119 0.410412 0
    outer loop
      vertex -4.42728 2.32362 1.5
      vertex -4.67508 1.77302 -1.5
      vertex -4.67508 1.77302 1.5
    endloop
  endfacet
  facet normal -0.98362 0.180255 0
    outer loop
      vertex -4.96354 0.602683 -1.5
      vertex -4.85471 1.19658 1.5
      vertex -4.85471 1.19658 -1.5
    endloop
  endfacet
  facet normal -0.98362 0.180255 0
    outer loop
      vertex -4.85471 1.19658 1.5
      vertex -4.96354 0.602683 -1.5
      vertex -4.96354 0.602683 1.5
    endloop
  endfacet
  facet normal 0 0 1
    outer loop
      vertex 1.8 0 1.5
      vertex 5 0 1.5
      vertex 4.96354 0.602683 1.5
    endloop
  endfacet
  facet normal 0 0 1
    outer loop
      vertex 1.78688 0.216966 1.5
      vertex 4.96354 0.602683 1.5
      vertex 4.85471 1.19658 1.5
    endloop
  endfacet
  facet normal 0 0 1
    outer loop
      vertex 5 0 1.5
      vertex 1.8 0 1.5
      vertex 4.96354 -0.602683 1.5
    endloop
  endfacet
  facet normal 0 0 1
    outer loop
      vertex 1.74769 0.430768 1.5
      vertex 4.85471 1.19658 1.5
      vertex 4.67508 1.77302 1.5
    endloop
  endfacet
  facet normal -0 0 1
    outer loop
      vertex 1.78688 -0.216966 1.5
      vertex 4.96354 -0.602683 1.5
      vertex 1.8 0 1.5
    endloop
  endfacet
  facet normal 0 0 1
    outer loop
      vertex 1.68303 0.638288 1.5
      vertex 4.67508 1.77302 1.5
      vertex 4.42728 2.32362 1.5
    endloop
  endfacet
  facet normal 0 0 1
    outer loop
      vertex 4.96354 -0.602683 1.5
      vertex 1.78688 -0.216966 1.5
      vertex 4.85471 -1.19658 1.5
    endloop
  endfacet
  facet normal 0 0 1
    outer loop
      vertex 1.59382 0.836501 1.5
      vertex 4.42728 2.32362 1.5
      vertex 4.11492 2.84032 1.5
    endloop
  endfacet
  facet normal -0 0 1
    outer loop
      vertex 1.74769 -0.430768 1.5
      vertex 4.85471 -1.19658 1.5
      vertex 1.78688 -0.216966 1.5
    endloop
  endfacet
  facet normal 0 0 1
    outer loop
      vertex 1.48137 1.02252 1.5
      vertex 4.11492 2.84032 1.5
      vertex 3.74255 3.31561 1.5
    endloop
  endfacet
  facet normal 0 0 1
    outer loop
      vertex 4.85471 -1.19658 1.5
      vertex 1.74769 -0.430768 1.5
      vertex 4.67508 -1.77302 1.5
    endloop
  endfacet
  facet normal 0 0 1
    outer loop
      vertex 1.34732 1.19362 1.5
      vertex 3.74255 3.31561 1.5
      vertex 3.31561 3.74255 1.5
    endloop
  endfacet
  facet normal -0 0 1
    outer loop
      vertex 1.68303 -0.638288 1.5
      vertex 4.67508 -1.77302 1.5
      vertex 1.74769 -0.430768 1.5
    endloop
  endfacet
  facet normal 0 0 1
    outer loop
      vertex 1.19362 1.34732 1.5
      vertex 3.31561 3.74255 1.5
      vertex 2.84032 4.11492 1.5
    endloop
  endfacet
  facet normal 0 0 1
    outer loop
      vertex 4.67508 -1.77302 1.5
      vertex 1.68303 -0.638288 1.5
      vertex 4.42728 -2.32362 1.5
    endloop
  endfacet
  facet normal 0 0 1
    outer loop
      vertex 1.02252 1.48137 1.5
      vertex 2.84032 4.11492 1.5
      vertex 2.32362 4.42728 1.5
    endloop
  endfacet
  facet normal -0 0 1
    outer loop
      vertex 1.59382 -0.836501 1.5
      vertex 4.42728 -2.32362 1.5
      vertex 1.68303 -0.638288 1.5
    endloop
  endfacet
  facet normal 0 0 1
    outer loop
      vertex 4.42728 -2.32362 1.5
      vertex 1.59382 -0.836501 1.5
      vertex 4.11492 -2.84032 1.5
    endloop
  endfacet
  facet normal 0 0 1
    outer loop
      vertex 4.96354 0.602683 1.5
      vertex 1.78688 0.216966 1.5
      vertex 1.8 0 1.5
    endloop
  endfacet
  facet normal 0 0 1
    outer loop
      vertex 0.836501 1.59382 1.5
      vertex 2.32362 4.42728 1.5
      vertex 1.77302 4.67508 1.5
    endloop
  endfacet
  facet normal 0 0 1
    outer loop
      vertex 4.85471 1.19658 1.5
      vertex 1.74769 0.430768 1.5
      vertex 1.78688 0.216966 1.5
    endloop
  endfacet
  facet normal 0 0 1
    outer loop
      vertex 4.67508 1.77302 1.5
      vertex 1.68303 0.638288 1.5
      vertex 1.74769 0.430768 1.5
    endloop
  endfacet
  facet normal 0 0 1
    outer loop
      vertex 4.42728 2.32362 1.5
      vertex 1.59382 0.836501 1.5
      vertex 1.68303 0.638288 1.5
    endloop
  endfacet
  facet normal 0 0 1
    outer loop
      vertex 4.11492 2.84032 1.5
      vertex 1.48137 1.02252 1.5
      vertex 1.59382 0.836501 1.5
    endloop
  endfacet
  facet normal 0 0 1
    outer loop
      vertex 3.74255 3.31561 1.5
      vertex 1.34732 1.19362 1.5
      vertex 1.48137 1.02252 1.5
    endloop
  endfacet
  facet normal 0 0 1
    outer loop
      vertex 0.638288 1.68303 1.5
      vertex 1.77302 4.67508 1.5
      vertex 1.19658 4.85471 1.5
    endloop
  endfacet
  facet normal 0 0 1
    outer loop
      vertex 3.31561 3.74255 1.5
      vertex 1.19362 1.34732 1.5
      vertex 1.34732 1.19362 1.5
    endloop
  endfacet
  facet normal 0 0 1
    outer loop
      vertex 2.84032 4.11492 1.5
      vertex 1.02252 1.48137 1.5
      vertex 1.19362 1.34732 1.5
    endloop
  endfacet
  facet normal 0 0 1
    outer loop
      vertex 2.32362 4.42728 1.5
      vertex 0.836501 1.59382 1.5
      vertex 1.02252 1.48137 1.5
    endloop
  endfacet
  facet normal 0 0 1
    outer loop
      vertex 1.77302 4.67508 1.5
      vertex 0.638288 1.68303 1.5
      vertex 0.836501 1.59382 1.5
    endloop
  endfacet
  facet normal 0 0 1
    outer loop
      vertex 0.430768 1.74769 1.5
      vertex 1.19658 4.85471 1.5
      vertex 0.602683 4.96354 1.5
    endloop
  endfacet
  facet normal 0 0 1
    outer loop
      vertex 1.19658 4.85471 1.5
      vertex 0.430768 1.74769 1.5
      vertex 0.638288 1.68303 1.5
    endloop
  endfacet
  facet normal 0 0 1
    outer loop
      vertex 0.602683 4.96354 1.5
      vertex 0.216966 1.78688 1.5
      vertex 0.430768 1.74769 1.5
    endloop
  endfacet
  facet normal 0 0 1
    outer loop
      vertex 0 5 1.5
      vertex 0.216966 1.78688 1.5
      vertex 0.602683 4.96354 1.5
    endloop
  endfacet
  facet normal 0 0 1
    outer loop
      vertex 0 5 1.5
      vertex 0 1.8 1.5
      vertex 0.216966 1.78688 1.5
    endloop
  endfacet
  facet normal 0 0 1
    outer loop
      vertex 0 5 1.5
      vertex -0.216966 1.78688 1.5
      vertex 0 1.8 1.5
    endloop
  endfacet
  facet normal -0 0 1
    outer loop
      vertex -0.602683 4.96354 1.5
      vertex -0.216966 1.78688 1.5
      vertex 0 5 1.5
    endloop
  endfacet
  facet normal 0 0 1
    outer loop
      vertex -0.216966 1.78688 1.5
      vertex -0.602683 4.96354 1.5
      vertex -0.430768 1.74769 1.5
    endloop
  endfacet
  facet normal -0 0 1
    outer loop
      vertex -1.19658 4.85471 1.5
      vertex -0.430768 1.74769 1.5
      vertex -0.602683 4.96354 1.5
    endloop
  endfacet
  facet normal 0 0 1
    outer loop
      vertex -0.430768 1.74769 1.5
      vertex -1.19658 4.85471 1.5
      vertex -0.638288 1.68303 1.5
    endloop
  endfacet
  facet normal -0 0 1
    outer loop
      vertex -1.77302 4.67508 1.5
      vertex -0.638288 1.68303 1.5
      vertex -1.19658 4.85471 1.5
    endloop
  endfacet
  facet normal 0 0 1
    outer loop
      vertex -0.638288 1.68303 1.5
      vertex -1.77302 4.67508 1.5
      vertex -0.836501 1.59382 1.5
    endloop
  endfacet
  facet normal -0 0 1
    outer loop
      vertex -2.32362 4.42728 1.5
      vertex -0.836501 1.59382 1.5
      vertex -1.77302 4.67508 1.5
    endloop
  endfacet
  facet normal 0 0 1
    outer loop
      vertex -0.836501 1.59382 1.5
      vertex -2.32362 4.42728 1.5
      vertex -1.02252 1.48137 1.5
    endloop
  endfacet
  facet normal -0 0 1
    outer loop
      vertex -2.84032 4.11492 1.5
      vertex -1.02252 1.48137 1.5
      vertex -2.32362 4.42728 1.5
    endloop
  endfacet
  facet normal 0 0 1
    outer loop
      vertex -1.02252 1.48137 1.5
      vertex -2.84032 4.11492 1.5
      vertex -1.19362 1.34732 1.5
    endloop
  endfacet
  facet normal -0 0 1
    outer loop
      vertex -3.31561 3.74255 1.5
      vertex -1.19362 1.34732 1.5
      vertex -2.84032 4.11492 1.5
    endloop
  endfacet
  facet normal 0 0 1
    outer loop
      vertex -1.19362 1.34732 1.5
      vertex -3.31561 3.74255 1.5
      vertex -1.34732 1.19362 1.5
    endloop
  endfacet
  facet normal -0 0 1
    outer loop
      vertex -3.74255 3.31561 1.5
      vertex -1.34732 1.19362 1.5
      vertex -3.31561 3.74255 1.5
    endloop
  endfacet
  facet normal 0 0 1
    outer loop
      vertex -1.34732 1.19362 1.5
      vertex -3.74255 3.31561 1.5
      vertex -1.48137 1.02252 1.5
    endloop
  endfacet
  facet normal -0 0 1
    outer loop
      vertex -4.11492 2.84032 1.5
      vertex -1.48137 1.02252 1.5
      vertex -3.74255 3.31561 1.5
    endloop
  endfacet
  facet normal 0 0 1
    outer loop
      vertex -1.48137 1.02252 1.5
      vertex -4.11492 2.84032 1.5
      vertex -1.59382 0.836501 1.5
    endloop
  endfacet
  facet normal -0 0 1
    outer loop
      vertex 1.48137 -1.02252 1.5
      vertex 4.11492 -2.84032 1.5
      vertex 1.59382 -0.836501 1.5
    endloop
  endfacet
  facet normal 0 0 1
    outer loop
      vertex 4.11492 -2.84032 1.5
      vertex 1.48137 -1.02252 1.5
      vertex 3.74255 -3.31561 1.5
    endloop
  endfacet
  facet normal -0 0 1
    outer loop
      vertex 1.34732 -1.19362 1.5
      vertex 3.74255 -3.31561 1.5
      vertex 1.48137 -1.02252 1.5
    endloop
  endfacet
  facet normal 0 0 1
    outer loop
      vertex 3.74255 -3.31561 1.5
      vertex 1.34732 -1.19362 1.5
      vertex 3.31561 -3.74255 1.5
    endloop
  endfacet
  facet normal -0 0 1
    outer loop
      vertex 1.19362 -1.34732 1.5
      vertex 3.31561 -3.74255 1.5
      vertex 1.34732 -1.19362 1.5
    endloop
  endfacet
  facet normal 0 0 1
    outer loop
      vertex 3.31561 -3.74255 1.5
      vertex 1.19362 -1.34732 1.5
      vertex 2.84032 -4.11492 1.5
    endloop
  endfacet
  facet normal -0 0 1
    outer loop
      vertex 1.02252 -1.48137 1.5
      vertex 2.84032 -4.11492 1.5
      vertex 1.19362 -1.34732 1.5
    endloop
  endfacet
  facet normal 0 0 1
    outer loop
      vertex 2.84032 -4.11492 1.5
      vertex 1.02252 -1.48137 1.5
      vertex 2.32362 -4.42728 1.5
    endloop
  endfacet
  facet normal -0 0 1
    outer loop
      vertex 0.836501 -1.59382 1.5
      vertex 2.32362 -4.42728 1.5
      vertex 1.02252 -1.48137 1.5
    endloop
  endfacet
  facet normal 0 0 1
    outer loop
      vertex 2.32362 -4.42728 1.5
      vertex 0.836501 -1.59382 1.5
      vertex 1.77302 -4.67508 1.5
    endloop
  endfacet
  facet normal -0 0 1
    outer loop
      vertex 0.638288 -1.68303 1.5
      vertex 1.77302 -4.67508 1.5
      vertex 0.836501 -1.59382 1.5
    endloop
  endfacet
  facet normal 0 0 1
    outer loop
      vertex 1.77302 -4.67508 1.5
      vertex 0.638288 -1.68303 1.5
      vertex 1.19658 -4.85471 1.5
    endloop
  endfacet
  facet normal -0 0 1
    outer loop
      vertex 0.430768 -1.74769 1.5
      vertex 1.19658 -4.85471 1.5
      vertex 0.638288 -1.68303 1.5
    endloop
  endfacet
  facet normal 0 0 1
    outer loop
      vertex 1.19658 -4.85471 1.5
      vertex 0.430768 -1.74769 1.5
      vertex 0.602683 -4.96354 1.5
    endloop
  endfacet
  facet normal -0 0 1
    outer loop
      vertex 0.216966 -1.78688 1.5
      vertex 0.602683 -4.96354 1.5
      vertex 0.430768 -1.74769 1.5
    endloop
  endfacet
  facet normal -0 0 1
    outer loop
      vertex 0 -1.8 1.5
      vertex 0.602683 -4.96354 1.5
      vertex 0.216966 -1.78688 1.5
    endloop
  endfacet
  facet normal 0 0 1
    outer loop
      vertex 0 -1.8 1.5
      vertex 0 -5 1.5
      vertex 0.602683 -4.96354 1.5
    endloop
  endfacet
  facet normal 0 0 1
    outer loop
      vertex -0.216966 -1.78688 1.5
      vertex 0 -5 1.5
      vertex 0 -1.8 1.5
    endloop
  endfacet
  facet normal 0 0 1
    outer loop
      vertex -0.602683 -4.96354 1.5
      vertex -0.216966 -1.78688 1.5
      vertex -0.430768 -1.74769 1.5
    endloop
  endfacet
  facet normal 0 0 1
    outer loop
      vertex -0.216966 -1.78688 1.5
      vertex -0.602683 -4.96354 1.5
      vertex 0 -5 1.5
    endloop
  endfacet
  facet normal 0 0 1
    outer loop
      vertex -1.19658 -4.85471 1.5
      vertex -0.430768 -1.74769 1.5
      vertex -0.638288 -1.68303 1.5
    endloop
  endfacet
  facet normal 0 0 1
    outer loop
      vertex -1.77302 -4.67508 1.5
      vertex -0.638288 -1.68303 1.5
      vertex -0.836501 -1.59382 1.5
    endloop
  endfacet
  facet normal 0 0 1
    outer loop
      vertex -2.32362 -4.42728 1.5
      vertex -0.836501 -1.59382 1.5
      vertex -1.02252 -1.48137 1.5
    endloop
  endfacet
  facet normal 0 0 1
    outer loop
      vertex -2.84032 -4.11492 1.5
      vertex -1.02252 -1.48137 1.5
      vertex -1.19362 -1.34732 1.5
    endloop
  endfacet
  facet normal 0 0 1
    outer loop
      vertex -0.430768 -1.74769 1.5
      vertex -1.19658 -4.85471 1.5
      vertex -0.602683 -4.96354 1.5
    endloop
  endfacet
  facet normal 0 0 1
    outer loop
      vertex -3.31561 -3.74255 1.5
      vertex -1.19362 -1.34732 1.5
      vertex -1.34732 -1.19362 1.5
    endloop
  endfacet
  facet normal 0 0 1
    outer loop
      vertex -3.74255 -3.31561 1.5
      vertex -1.34732 -1.19362 1.5
      vertex -1.48137 -1.02252 1.5
    endloop
  endfacet
  facet normal 0 0 1
    outer loop
      vertex -4.11492 -2.84032 1.5
      vertex -1.48137 -1.02252 1.5
      vertex -1.59382 -0.836501 1.5
    endloop
  endfacet
  facet normal 0 0 1
    outer loop
      vertex -4.42728 -2.32362 1.5
      vertex -1.59382 -0.836501 1.5
      vertex -1.68303 -0.638288 1.5
    endloop
  endfacet
  facet normal 0 0 1
    outer loop
      vertex -4.67508 -1.77302 1.5
      vertex -1.68303 -0.638288 1.5
      vertex -1.74769 -0.430768 1.5
    endloop
  endfacet
  facet normal 0 0 1
    outer loop
      vertex -0.638288 -1.68303 1.5
      vertex -1.77302 -4.67508 1.5
      vertex -1.19658 -4.85471 1.5
    endloop
  endfacet
  facet normal 0 0 1
    outer loop
      vertex -4.85471 -1.19658 1.5
      vertex -1.74769 -0.430768 1.5
      vertex -1.78688 -0.216966 1.5
    endloop
  endfacet
  facet normal 0 0 1
    outer loop
      vertex -4.96354 -0.602683 1.5
      vertex -1.78688 -0.216966 1.5
      vertex -1.8 0 1.5
    endloop
  endfacet
  facet normal -0 0 1
    outer loop
      vertex -4.42728 2.32362 1.5
      vertex -1.59382 0.836501 1.5
      vertex -4.11492 2.84032 1.5
    endloop
  endfacet
  facet normal 0 0 1
    outer loop
      vertex -0.836501 -1.59382 1.5
      vertex -2.32362 -4.42728 1.5
      vertex -1.77302 -4.67508 1.5
    endloop
  endfacet
  facet normal 0 0 1
    outer loop
      vertex -1.59382 0.836501 1.5
      vertex -4.42728 2.32362 1.5
      vertex -1.68303 0.638288 1.5
    endloop
  endfacet
  facet normal 0 0 1
    outer loop
      vertex -1.02252 -1.48137 1.5
      vertex -2.84032 -4.11492 1.5
      vertex -2.32362 -4.42728 1.5
    endloop
  endfacet
  facet normal -0 0 1
    outer loop
      vertex -4.67508 1.77302 1.5
      vertex -1.68303 0.638288 1.5
      vertex -4.42728 2.32362 1.5
    endloop
  endfacet
  facet normal 0 0 1
    outer loop
      vertex -1.19362 -1.34732 1.5
      vertex -3.31561 -3.74255 1.5
      vertex -2.84032 -4.11492 1.5
    endloop
  endfacet
  facet normal 0 0 1
    outer loop
      vertex -1.68303 0.638288 1.5
      vertex -4.67508 1.77302 1.5
      vertex -1.74769 0.430768 1.5
    endloop
  endfacet
  facet normal 0 0 1
    outer loop
      vertex -1.34732 -1.19362 1.5
      vertex -3.74255 -3.31561 1.5
      vertex -3.31561 -3.74255 1.5
    endloop
  endfacet
  facet normal -0 0 1
    outer loop
      vertex -4.85471 1.19658 1.5
      vertex -1.74769 0.430768 1.5
      vertex -4.67508 1.77302 1.5
    endloop
  endfacet
  facet normal 0 0 1
    outer loop
      vertex -1.48137 -1.02252 1.5
      vertex -4.11492 -2.84032 1.5
      vertex -3.74255 -3.31561 1.5
    endloop
  endfacet
  facet normal 0 0 1
    outer loop
      vertex -1.74769 0.430768 1.5
      vertex -4.85471 1.19658 1.5
      vertex -1.78688 0.216966 1.5
    endloop
  endfacet
  facet normal 0 0 1
    outer loop
      vertex -1.59382 -0.836501 1.5
      vertex -4.42728 -2.32362 1.5
      vertex -4.11492 -2.84032 1.5
    endloop
  endfacet
  facet normal -0 0 1
    outer loop
      vertex -4.96354 0.602683 1.5
      vertex -1.78688 0.216966 1.5
      vertex -4.85471 1.19658 1.5
    endloop
  endfacet
  facet normal 0 0 1
    outer loop
      vertex -1.68303 -0.638288 1.5
      vertex -4.67508 -1.77302 1.5
      vertex -4.42728 -2.32362 1.5
    endloop
  endfacet
  facet normal 0 0 1
    outer loop
      vertex -1.78688 0.216966 1.5
      vertex -4.96354 0.602683 1.5
      vertex -1.8 0 1.5
    endloop
  endfacet
  facet normal 0 0 1
    outer loop
      vertex -1.74769 -0.430768 1.5
      vertex -4.85471 -1.19658 1.5
      vertex -4.67508 -1.77302 1.5
    endloop
  endfacet
  facet normal 0 0 1
    outer loop
      vertex -5 0 1.5
      vertex -1.8 0 1.5
      vertex -4.96354 0.602683 1.5
    endloop
  endfacet
  facet normal 0 0 1
    outer loop
      vertex -1.78688 -0.216966 1.5
      vertex -4.96354 -0.602683 1.5
      vertex -4.85471 -1.19658 1.5
    endloop
  endfacet
  facet normal 0 0 1
    outer loop
      vertex -1.8 0 1.5
      vertex -5 0 1.5
      vertex -4.96354 -0.602683 1.5
    endloop
  endfacet
  facet normal -0.517337 0.855782 0
    outer loop
      vertex -2.32362 4.42728 -1.5
      vertex -2.84032 4.11492 1.5
      vertex -2.32362 4.42728 1.5
    endloop
  endfacet
  facet normal -0.517337 0.855782 0
    outer loop
      vertex -2.84032 4.11492 1.5
      vertex -2.32362 4.42728 -1.5
      vertex -2.84032 4.11492 -1.5
    endloop
  endfacet
  facet normal -0.0603793 0.998176 0
    outer loop
      vertex 0 5 -1.5
      vertex -0.602683 4.96354 1.5
      vertex 0 5 1.5
    endloop
  endfacet
  facet normal -0.0603793 0.998176 0
    outer loop
      vertex -0.602683 4.96354 1.5
      vertex 0 5 -1.5
      vertex -0.602683 4.96354 -1.5
    endloop
  endfacet
  facet normal 0.998176 -0.0603793 0
    outer loop
      vertex 4.96354 -0.602683 1.5
      vertex 5 0 -1.5
      vertex 5 0 1.5
    endloop
  endfacet
  facet normal 0.998176 -0.0603793 0
    outer loop
      vertex 5 0 -1.5
      vertex 4.96354 -0.602683 1.5
      vertex 4.96354 -0.602683 -1.5
    endloop
  endfacet
  facet normal 0.0603793 -0.998176 0
    outer loop
      vertex 0 -5 -1.5
      vertex 0.602683 -4.96354 1.5
      vertex 0 -5 1.5
    endloop
  endfacet
  facet normal 0.0603793 -0.998176 0
    outer loop
      vertex 0.602683 -4.96354 1.5
      vertex 0 -5 -1.5
      vertex 0.602683 -4.96354 -1.5
    endloop
  endfacet
  facet normal 0.297504 -0.954721 0
    outer loop
      vertex 1.19658 -4.85471 -1.5
      vertex 1.77302 -4.67508 1.5
      vertex 1.19658 -4.85471 1.5
    endloop
  endfacet
  facet normal 0.297504 -0.954721 0
    outer loop
      vertex 1.77302 -4.67508 1.5
      vertex 1.19658 -4.85471 -1.5
      vertex 1.77302 -4.67508 -1.5
    endloop
  endfacet
  facet normal 0.707107 -0.707107 0
    outer loop
      vertex 3.31561 -3.74255 1.5
      vertex 3.74255 -3.31561 -1.5
      vertex 3.74255 -3.31561 1.5
    endloop
  endfacet
  facet normal 0.707107 -0.707107 0
    outer loop
      vertex 3.74255 -3.31561 -1.5
      vertex 3.31561 -3.74255 1.5
      vertex 3.31561 -3.74255 -1.5
    endloop
  endfacet
  facet normal 0.517337 -0.855782 0
    outer loop
      vertex 2.32362 -4.42728 -1.5
      vertex 2.84032 -4.11492 1.5
      vertex 2.32362 -4.42728 1.5
    endloop
  endfacet
  facet normal 0.517337 -0.855782 0
    outer loop
      vertex 2.84032 -4.11492 1.5
      vertex 2.32362 -4.42728 -1.5
      vertex 2.84032 -4.11492 -1.5
    endloop
  endfacet
  facet normal 0.787184 -0.616718 0
    outer loop
      vertex 3.74255 -3.31561 1.5
      vertex 4.11492 -2.84032 -1.5
      vertex 4.11492 -2.84032 1.5
    endloop
  endfacet
  facet normal 0.787184 -0.616718 0
    outer loop
      vertex 4.11492 -2.84032 -1.5
      vertex 3.74255 -3.31561 1.5
      vertex 3.74255 -3.31561 -1.5
    endloop
  endfacet
  facet normal 0.9119 -0.410412 0
    outer loop
      vertex 4.42728 -2.32362 1.5
      vertex 4.67508 -1.77302 -1.5
      vertex 4.67508 -1.77302 1.5
    endloop
  endfacet
  facet normal 0.9119 -0.410412 0
    outer loop
      vertex 4.67508 -1.77302 -1.5
      vertex 4.42728 -2.32362 1.5
      vertex 4.42728 -2.32362 -1.5
    endloop
  endfacet
  facet normal -0.616718 -0.787184 0
    outer loop
      vertex -3.31561 -3.74255 -1.5
      vertex -2.84032 -4.11492 1.5
      vertex -3.31561 -3.74255 1.5
    endloop
  endfacet
  facet normal -0.616718 -0.787184 -0
    outer loop
      vertex -2.84032 -4.11492 1.5
      vertex -3.31561 -3.74255 -1.5
      vertex -2.84032 -4.11492 -1.5
    endloop
  endfacet
  facet normal -0.410412 -0.9119 0
    outer loop
      vertex -2.32362 -4.42728 -1.5
      vertex -1.77302 -4.67508 1.5
      vertex -2.32362 -4.42728 1.5
    endloop
  endfacet
  facet normal -0.410412 -0.9119 -0
    outer loop
      vertex -1.77302 -4.67508 1.5
      vertex -2.32362 -4.42728 -1.5
      vertex -1.77302 -4.67508 -1.5
    endloop
  endfacet
  facet normal -0.180255 -0.98362 0
    outer loop
      vertex -1.19658 -4.85471 -1.5
      vertex -0.602683 -4.96354 1.5
      vertex -1.19658 -4.85471 1.5
    endloop
  endfacet
  facet normal -0.180255 -0.98362 -0
    outer loop
      vertex -0.602683 -4.96354 1.5
      vertex -1.19658 -4.85471 -1.5
      vertex -0.602683 -4.96354 -1.5
    endloop
  endfacet
  facet normal -0.855782 -0.517337 0
    outer loop
      vertex -4.11492 -2.84032 -1.5
      vertex -4.42728 -2.32362 1.5
      vertex -4.42728 -2.32362 -1.5
    endloop
  endfacet
  facet normal -0.855782 -0.517337 0
    outer loop
      vertex -4.42728 -2.32362 1.5
      vertex -4.11492 -2.84032 -1.5
      vertex -4.11492 -2.84032 1.5
    endloop
  endfacet
  facet normal -0.954721 -0.297504 0
    outer loop
      vertex -4.67508 -1.77302 -1.5
      vertex -4.85471 -1.19658 1.5
      vertex -4.85471 -1.19658 -1.5
    endloop
  endfacet
  facet normal -0.954721 -0.297504 0
    outer loop
      vertex -4.85471 -1.19658 1.5
      vertex -4.67508 -1.77302 -1.5
      vertex -4.67508 -1.77302 1.5
    endloop
  endfacet
  facet normal -0.998176 -0.0603793 0
    outer loop
      vertex -4.96354 -0.602683 -1.5
      vertex -5 0 1.5
      vertex -5 0 -1.5
    endloop
  endfacet
  facet normal -0.998176 -0.0603793 0
    outer loop
      vertex -5 0 1.5
      vertex -4.96354 -0.602683 -1.5
      vertex -4.96354 -0.602683 1.5
    endloop
  endfacet
  facet normal 0.180255 -0.98362 0
    outer loop
      vertex 0.602683 -4.96354 -1.5
      vertex 1.19658 -4.85471 1.5
      vertex 0.602683 -4.96354 1.5
    endloop
  endfacet
  facet normal 0.180255 -0.98362 0
    outer loop
      vertex 1.19658 -4.85471 1.5
      vertex 0.602683 -4.96354 -1.5
      vertex 1.19658 -4.85471 -1.5
    endloop
  endfacet
  facet normal 0.410412 -0.9119 0
    outer loop
      vertex 1.77302 -4.67508 -1.5
      vertex 2.32362 -4.42728 1.5
      vertex 1.77302 -4.67508 1.5
    endloop
  endfacet
  facet normal 0.410412 -0.9119 0
    outer loop
      vertex 2.32362 -4.42728 1.5
      vertex 1.77302 -4.67508 -1.5
      vertex 2.32362 -4.42728 -1.5
    endloop
  endfacet
  facet normal 0.616718 -0.787184 0
    outer loop
      vertex 2.84032 -4.11492 -1.5
      vertex 3.31561 -3.74255 1.5
      vertex 2.84032 -4.11492 1.5
    endloop
  endfacet
  facet normal 0.616718 -0.787184 0
    outer loop
      vertex 3.31561 -3.74255 1.5
      vertex 2.84032 -4.11492 -1.5
      vertex 3.31561 -3.74255 -1.5
    endloop
  endfacet
  facet normal 0.855782 -0.517337 0
    outer loop
      vertex 4.11492 -2.84032 1.5
      vertex 4.42728 -2.32362 -1.5
      vertex 4.42728 -2.32362 1.5
    endloop
  endfacet
  facet normal 0.855782 -0.517337 0
    outer loop
      vertex 4.42728 -2.32362 -1.5
      vertex 4.11492 -2.84032 1.5
      vertex 4.11492 -2.84032 -1.5
    endloop
  endfacet
  facet normal -0.517337 -0.855782 0
    outer loop
      vertex -2.84032 -4.11492 -1.5
      vertex -2.32362 -4.42728 1.5
      vertex -2.84032 -4.11492 1.5
    endloop
  endfacet
  facet normal -0.517337 -0.855782 -0
    outer loop
      vertex -2.32362 -4.42728 1.5
      vertex -2.84032 -4.11492 -1.5
      vertex -2.32362 -4.42728 -1.5
    endloop
  endfacet
  facet normal -0.297504 -0.954721 0
    outer loop
      vertex -1.77302 -4.67508 -1.5
      vertex -1.19658 -4.85471 1.5
      vertex -1.77302 -4.67508 1.5
    endloop
  endfacet
  facet normal -0.297504 -0.954721 -0
    outer loop
      vertex -1.19658 -4.85471 1.5
      vertex -1.77302 -4.67508 -1.5
      vertex -1.19658 -4.85471 -1.5
    endloop
  endfacet
  facet normal -0.98362 -0.180255 0
    outer loop
      vertex -4.85471 -1.19658 -1.5
      vertex -4.96354 -0.602683 1.5
      vertex -4.96354 -0.602683 -1.5
    endloop
  endfacet
  facet normal -0.98362 -0.180255 0
    outer loop
      vertex -4.96354 -0.602683 1.5
      vertex -4.85471 -1.19658 -1.5
      vertex -4.85471 -1.19658 1.5
    endloop
  endfacet
  facet normal -0.787182 -0.61672 0
    outer loop
      vertex 1.48137 1.02252 -1.5
      vertex 1.34732 1.19362 1.5
      vertex 1.34732 1.19362 -1.5
    endloop
  endfacet
  facet normal -0.787182 -0.61672 0
    outer loop
      vertex 1.34732 1.19362 1.5
      vertex 1.48137 1.02252 -1.5
      vertex 1.48137 1.02252 1.5
    endloop
  endfacet
  facet normal -0.297502 -0.954721 0
    outer loop
      vertex 0.430768 1.74769 -1.5
      vertex 0.638288 1.68303 1.5
      vertex 0.430768 1.74769 1.5
    endloop
  endfacet
  facet normal -0.297502 -0.954721 -0
    outer loop
      vertex 0.638288 1.68303 1.5
      vertex 0.430768 1.74769 -1.5
      vertex 0.638288 1.68303 -1.5
    endloop
  endfacet
  facet normal 0.410414 -0.911899 0
    outer loop
      vertex -0.836501 1.59382 -1.5
      vertex -0.638288 1.68303 1.5
      vertex -0.836501 1.59382 1.5
    endloop
  endfacet
  facet normal 0.410414 -0.911899 0
    outer loop
      vertex -0.638288 1.68303 1.5
      vertex -0.836501 1.59382 -1.5
      vertex -0.638288 1.68303 -1.5
    endloop
  endfacet
  facet normal 0.911899 -0.410414 0
    outer loop
      vertex -1.68303 0.638288 1.5
      vertex -1.59382 0.836501 -1.5
      vertex -1.59382 0.836501 1.5
    endloop
  endfacet
  facet normal 0.911899 -0.410414 0
    outer loop
      vertex -1.59382 0.836501 -1.5
      vertex -1.68303 0.638288 1.5
      vertex -1.68303 0.638288 -1.5
    endloop
  endfacet
  facet normal -0.98362 0.180255 0
    outer loop
      vertex 1.74769 -0.430768 -1.5
      vertex 1.78688 -0.216966 1.5
      vertex 1.78688 -0.216966 -1.5
    endloop
  endfacet
  facet normal -0.98362 0.180255 0
    outer loop
      vertex 1.78688 -0.216966 1.5
      vertex 1.74769 -0.430768 -1.5
      vertex 1.74769 -0.430768 1.5
    endloop
  endfacet
  facet normal -0.410414 -0.911899 0
    outer loop
      vertex 0.638288 1.68303 -1.5
      vertex 0.836501 1.59382 1.5
      vertex 0.638288 1.68303 1.5
    endloop
  endfacet
  facet normal -0.410414 -0.911899 -0
    outer loop
      vertex 0.836501 1.59382 1.5
      vertex 0.638288 1.68303 -1.5
      vertex 0.836501 1.59382 -1.5
    endloop
  endfacet
  facet normal 0.998176 -0.0603762 0
    outer loop
      vertex -1.8 0 1.5
      vertex -1.78688 0.216966 -1.5
      vertex -1.78688 0.216966 1.5
    endloop
  endfacet
  facet normal 0.998176 -0.0603762 0
    outer loop
      vertex -1.78688 0.216966 -1.5
      vertex -1.8 0 1.5
      vertex -1.8 0 -1.5
    endloop
  endfacet
  facet normal 0.787182 -0.61672 0
    outer loop
      vertex -1.48137 1.02252 1.5
      vertex -1.34732 1.19362 -1.5
      vertex -1.34732 1.19362 1.5
    endloop
  endfacet
  facet normal 0.787182 -0.61672 0
    outer loop
      vertex -1.34732 1.19362 -1.5
      vertex -1.48137 1.02252 1.5
      vertex -1.48137 1.02252 -1.5
    endloop
  endfacet
  facet normal 0.517336 -0.855782 0
    outer loop
      vertex -1.02252 1.48137 -1.5
      vertex -0.836501 1.59382 1.5
      vertex -1.02252 1.48137 1.5
    endloop
  endfacet
  facet normal 0.517336 -0.855782 0
    outer loop
      vertex -0.836501 1.59382 1.5
      vertex -1.02252 1.48137 -1.5
      vertex -0.836501 1.59382 -1.5
    endloop
  endfacet
  facet normal 0.297502 -0.954721 0
    outer loop
      vertex -0.638288 1.68303 -1.5
      vertex -0.430768 1.74769 1.5
      vertex -0.638288 1.68303 1.5
    endloop
  endfacet
  facet normal 0.297502 -0.954721 0
    outer loop
      vertex -0.430768 1.74769 1.5
      vertex -0.638288 1.68303 -1.5
      vertex -0.430768 1.74769 -1.5
    endloop
  endfacet
  facet normal -0.998176 0.0603762 0
    outer loop
      vertex 1.78688 -0.216966 -1.5
      vertex 1.8 0 1.5
      vertex 1.8 0 -1.5
    endloop
  endfacet
  facet normal -0.998176 0.0603762 0
    outer loop
      vertex 1.8 0 1.5
      vertex 1.78688 -0.216966 -1.5
      vertex 1.78688 -0.216966 1.5
    endloop
  endfacet
  facet normal -0.954721 0.297502 0
    outer loop
      vertex 1.68303 -0.638288 -1.5
      vertex 1.74769 -0.430768 1.5
      vertex 1.74769 -0.430768 -1.5
    endloop
  endfacet
  facet normal -0.954721 0.297502 0
    outer loop
      vertex 1.74769 -0.430768 1.5
      vertex 1.68303 -0.638288 -1.5
      vertex 1.68303 -0.638288 1.5
    endloop
  endfacet
  facet normal -0.61672 0.787182 0
    outer loop
      vertex 1.19362 -1.34732 -1.5
      vertex 1.02252 -1.48137 1.5
      vertex 1.19362 -1.34732 1.5
    endloop
  endfacet
  facet normal -0.61672 0.787182 0
    outer loop
      vertex 1.02252 -1.48137 1.5
      vertex 1.19362 -1.34732 -1.5
      vertex 1.02252 -1.48137 -1.5
    endloop
  endfacet
  facet normal -0.98362 -0.180255 0
    outer loop
      vertex 1.78688 0.216966 -1.5
      vertex 1.74769 0.430768 1.5
      vertex 1.74769 0.430768 -1.5
    endloop
  endfacet
  facet normal -0.98362 -0.180255 0
    outer loop
      vertex 1.74769 0.430768 1.5
      vertex 1.78688 0.216966 -1.5
      vertex 1.78688 0.216966 1.5
    endloop
  endfacet
  facet normal -0.61672 -0.787182 0
    outer loop
      vertex 1.02252 1.48137 -1.5
      vertex 1.19362 1.34732 1.5
      vertex 1.02252 1.48137 1.5
    endloop
  endfacet
  facet normal -0.61672 -0.787182 -0
    outer loop
      vertex 1.19362 1.34732 1.5
      vertex 1.02252 1.48137 -1.5
      vertex 1.19362 1.34732 -1.5
    endloop
  endfacet
  facet normal -0.707107 -0.707107 0
    outer loop
      vertex 1.34732 1.19362 -1.5
      vertex 1.19362 1.34732 1.5
      vertex 1.19362 1.34732 -1.5
    endloop
  endfacet
  facet normal -0.707107 -0.707107 0
    outer loop
      vertex 1.19362 1.34732 1.5
      vertex 1.34732 1.19362 -1.5
      vertex 1.34732 1.19362 1.5
    endloop
  endfacet
  facet normal 0.0603762 -0.998176 0
    outer loop
      vertex -0.216966 1.78688 -1.5
      vertex 0 1.8 1.5
      vertex -0.216966 1.78688 1.5
    endloop
  endfacet
  facet normal 0.0603762 -0.998176 0
    outer loop
      vertex 0 1.8 1.5
      vertex -0.216966 1.78688 -1.5
      vertex 0 1.8 -1.5
    endloop
  endfacet
  facet normal -0.180255 -0.98362 0
    outer loop
      vertex 0.216966 1.78688 -1.5
      vertex 0.430768 1.74769 1.5
      vertex 0.216966 1.78688 1.5
    endloop
  endfacet
  facet normal -0.180255 -0.98362 -0
    outer loop
      vertex 0.430768 1.74769 1.5
      vertex 0.216966 1.78688 -1.5
      vertex 0.430768 1.74769 -1.5
    endloop
  endfacet
  facet normal -0.517336 -0.855782 0
    outer loop
      vertex 0.836501 1.59382 -1.5
      vertex 1.02252 1.48137 1.5
      vertex 0.836501 1.59382 1.5
    endloop
  endfacet
  facet normal -0.517336 -0.855782 -0
    outer loop
      vertex 1.02252 1.48137 1.5
      vertex 0.836501 1.59382 -1.5
      vertex 1.02252 1.48137 -1.5
    endloop
  endfacet
  facet normal 0.954721 -0.297502 0
    outer loop
      vertex -1.74769 0.430768 1.5
      vertex -1.68303 0.638288 -1.5
      vertex -1.68303 0.638288 1.5
    endloop
  endfacet
  facet normal 0.954721 -0.297502 0
    outer loop
      vertex -1.68303 0.638288 -1.5
      vertex -1.74769 0.430768 1.5
      vertex -1.74769 0.430768 -1.5
    endloop
  endfacet
  facet normal 0.98362 -0.180255 0
    outer loop
      vertex -1.78688 0.216966 1.5
      vertex -1.74769 0.430768 -1.5
      vertex -1.74769 0.430768 1.5
    endloop
  endfacet
  facet normal 0.98362 -0.180255 0
    outer loop
      vertex -1.74769 0.430768 -1.5
      vertex -1.78688 0.216966 1.5
      vertex -1.78688 0.216966 -1.5
    endloop
  endfacet
  facet normal 0.855782 -0.517336 0
    outer loop
      vertex -1.59382 0.836501 1.5
      vertex -1.48137 1.02252 -1.5
      vertex -1.48137 1.02252 1.5
    endloop
  endfacet
  facet normal 0.855782 -0.517336 0
    outer loop
      vertex -1.48137 1.02252 -1.5
      vertex -1.59382 0.836501 1.5
      vertex -1.59382 0.836501 -1.5
    endloop
  endfacet
  facet normal 0.180255 -0.98362 0
    outer loop
      vertex -0.430768 1.74769 -1.5
      vertex -0.216966 1.78688 1.5
      vertex -0.430768 1.74769 1.5
    endloop
  endfacet
  facet normal 0.180255 -0.98362 0
    outer loop
      vertex -0.216966 1.78688 1.5
      vertex -0.430768 1.74769 -1.5
      vertex -0.216966 1.78688 -1.5
    endloop
  endfacet
  facet normal 0.61672 -0.787182 0
    outer loop
      vertex -1.19362 1.34732 -1.5
      vertex -1.02252 1.48137 1.5
      vertex -1.19362 1.34732 1.5
    endloop
  endfacet
  facet normal 0.61672 -0.787182 0
    outer loop
      vertex -1.02252 1.48137 1.5
      vertex -1.19362 1.34732 -1.5
      vertex -1.02252 1.48137 -1.5
    endloop
  endfacet
  facet normal 0.707107 -0.707107 0
    outer loop
      vertex -1.34732 1.19362 1.5
      vertex -1.19362 1.34732 -1.5
      vertex -1.19362 1.34732 1.5
    endloop
  endfacet
  facet normal 0.707107 -0.707107 0
    outer loop
      vertex -1.19362 1.34732 -1.5
      vertex -1.34732 1.19362 1.5
      vertex -1.34732 1.19362 -1.5
    endloop
  endfacet
  facet normal -0.998176 -0.0603762 0
    outer loop
      vertex 1.8 0 -1.5
      vertex 1.78688 0.216966 1.5
      vertex 1.78688 0.216966 -1.5
    endloop
  endfacet
  facet normal -0.998176 -0.0603762 0
    outer loop
      vertex 1.78688 0.216966 1.5
      vertex 1.8 0 -1.5
      vertex 1.8 0 1.5
    endloop
  endfacet
  facet normal -0.855782 0.517336 0
    outer loop
      vertex 1.48137 -1.02252 -1.5
      vertex 1.59382 -0.836501 1.5
      vertex 1.59382 -0.836501 -1.5
    endloop
  endfacet
  facet normal -0.855782 0.517336 0
    outer loop
      vertex 1.59382 -0.836501 1.5
      vertex 1.48137 -1.02252 -1.5
      vertex 1.48137 -1.02252 1.5
    endloop
  endfacet
  facet normal 0.998176 0.0603762 0
    outer loop
      vertex -1.78688 -0.216966 1.5
      vertex -1.8 0 -1.5
      vertex -1.8 0 1.5
    endloop
  endfacet
  facet normal 0.998176 0.0603762 0
    outer loop
      vertex -1.8 0 -1.5
      vertex -1.78688 -0.216966 1.5
      vertex -1.78688 -0.216966 -1.5
    endloop
  endfacet
  facet normal 0.911899 0.410414 0
    outer loop
      vertex -1.59382 -0.836501 1.5
      vertex -1.68303 -0.638288 -1.5
      vertex -1.68303 -0.638288 1.5
    endloop
  endfacet
  facet normal 0.911899 0.410414 0
    outer loop
      vertex -1.68303 -0.638288 -1.5
      vertex -1.59382 -0.836501 1.5
      vertex -1.59382 -0.836501 -1.5
    endloop
  endfacet
  facet normal -0.707107 0.707107 0
    outer loop
      vertex 1.19362 -1.34732 -1.5
      vertex 1.34732 -1.19362 1.5
      vertex 1.34732 -1.19362 -1.5
    endloop
  endfacet
  facet normal -0.707107 0.707107 0
    outer loop
      vertex 1.34732 -1.19362 1.5
      vertex 1.19362 -1.34732 -1.5
      vertex 1.19362 -1.34732 1.5
    endloop
  endfacet
  facet normal -0.855782 -0.517336 0
    outer loop
      vertex 1.59382 0.836501 -1.5
      vertex 1.48137 1.02252 1.5
      vertex 1.48137 1.02252 -1.5
    endloop
  endfacet
  facet normal -0.855782 -0.517336 0
    outer loop
      vertex 1.48137 1.02252 1.5
      vertex 1.59382 0.836501 -1.5
      vertex 1.59382 0.836501 1.5
    endloop
  endfacet
  facet normal -0.911899 -0.410414 0
    outer loop
      vertex 1.68303 0.638288 -1.5
      vertex 1.59382 0.836501 1.5
      vertex 1.59382 0.836501 -1.5
    endloop
  endfacet
  facet normal -0.911899 -0.410414 0
    outer loop
      vertex 1.59382 0.836501 1.5
      vertex 1.68303 0.638288 -1.5
      vertex 1.68303 0.638288 1.5
    endloop
  endfacet
  facet normal -0.954721 -0.297502 0
    outer loop
      vertex 1.74769 0.430768 -1.5
      vertex 1.68303 0.638288 1.5
      vertex 1.68303 0.638288 -1.5
    endloop
  endfacet
  facet normal -0.954721 -0.297502 0
    outer loop
      vertex 1.68303 0.638288 1.5
      vertex 1.74769 0.430768 -1.5
      vertex 1.74769 0.430768 1.5
    endloop
  endfacet
  facet normal -0.0603762 -0.998176 0
    outer loop
      vertex 0 1.8 -1.5
      vertex 0.216966 1.78688 1.5
      vertex 0 1.8 1.5
    endloop
  endfacet
  facet normal -0.0603762 -0.998176 -0
    outer loop
      vertex 0.216966 1.78688 1.5
      vertex 0 1.8 -1.5
      vertex 0.216966 1.78688 -1.5
    endloop
  endfacet
  facet normal -0.911899 0.410414 0
    outer loop
      vertex 1.59382 -0.836501 -1.5
      vertex 1.68303 -0.638288 1.5
      vertex 1.68303 -0.638288 -1.5
    endloop
  endfacet
  facet normal -0.911899 0.410414 0
    outer loop
      vertex 1.68303 -0.638288 1.5
      vertex 1.59382 -0.836501 -1.5
      vertex 1.59382 -0.836501 1.5
    endloop
  endfacet
  facet normal 0.0603762 0.998176 -0
    outer loop
      vertex 0 -1.8 -1.5
      vertex -0.216966 -1.78688 1.5
      vertex 0 -1.8 1.5
    endloop
  endfacet
  facet normal 0.0603762 0.998176 0
    outer loop
      vertex -0.216966 -1.78688 1.5
      vertex 0 -1.8 -1.5
      vertex -0.216966 -1.78688 -1.5
    endloop
  endfacet
  facet normal 0.954721 0.297502 0
    outer loop
      vertex -1.68303 -0.638288 1.5
      vertex -1.74769 -0.430768 -1.5
      vertex -1.74769 -0.430768 1.5
    endloop
  endfacet
  facet normal 0.954721 0.297502 0
    outer loop
      vertex -1.74769 -0.430768 -1.5
      vertex -1.68303 -0.638288 1.5
      vertex -1.68303 -0.638288 -1.5
    endloop
  endfacet
  facet normal 0.98362 0.180255 0
    outer loop
      vertex -1.74769 -0.430768 1.5
      vertex -1.78688 -0.216966 -1.5
      vertex -1.78688 -0.216966 1.5
    endloop
  endfacet
  facet normal 0.98362 0.180255 0
    outer loop
      vertex -1.78688 -0.216966 -1.5
      vertex -1.74769 -0.430768 1.5
      vertex -1.74769 -0.430768 -1.5
    endloop
  endfacet
  facet normal -0.180255 0.98362 0
    outer loop
      vertex 0.430768 -1.74769 -1.5
      vertex 0.216966 -1.78688 1.5
      vertex 0.430768 -1.74769 1.5
    endloop
  endfacet
  facet normal -0.180255 0.98362 0
    outer loop
      vertex 0.216966 -1.78688 1.5
      vertex 0.430768 -1.74769 -1.5
      vertex 0.216966 -1.78688 -1.5
    endloop
  endfacet
  facet normal -0.517336 0.855782 0
    outer loop
      vertex 1.02252 -1.48137 -1.5
      vertex 0.836501 -1.59382 1.5
      vertex 1.02252 -1.48137 1.5
    endloop
  endfacet
  facet normal -0.517336 0.855782 0
    outer loop
      vertex 0.836501 -1.59382 1.5
      vertex 1.02252 -1.48137 -1.5
      vertex 0.836501 -1.59382 -1.5
    endloop
  endfacet
  facet normal -0.410414 0.911899 0
    outer loop
      vertex 0.836501 -1.59382 -1.5
      vertex 0.638288 -1.68303 1.5
      vertex 0.836501 -1.59382 1.5
    endloop
  endfacet
  facet normal -0.410414 0.911899 0
    outer loop
      vertex 0.638288 -1.68303 1.5
      vertex 0.836501 -1.59382 -1.5
      vertex 0.638288 -1.68303 -1.5
    endloop
  endfacet
  facet normal -0.787182 0.61672 0
    outer loop
      vertex 1.34732 -1.19362 -1.5
      vertex 1.48137 -1.02252 1.5
      vertex 1.48137 -1.02252 -1.5
    endloop
  endfacet
  facet normal -0.787182 0.61672 0
    outer loop
      vertex 1.48137 -1.02252 1.5
      vertex 1.34732 -1.19362 -1.5
      vertex 1.34732 -1.19362 1.5
    endloop
  endfacet
  facet normal 0.61672 0.787182 -0
    outer loop
      vertex -1.02252 -1.48137 -1.5
      vertex -1.19362 -1.34732 1.5
      vertex -1.02252 -1.48137 1.5
    endloop
  endfacet
  facet normal 0.61672 0.787182 0
    outer loop
      vertex -1.19362 -1.34732 1.5
      vertex -1.02252 -1.48137 -1.5
      vertex -1.19362 -1.34732 -1.5
    endloop
  endfacet
  facet normal -0.0603762 0.998176 0
    outer loop
      vertex 0.216966 -1.78688 -1.5
      vertex 0 -1.8 1.5
      vertex 0.216966 -1.78688 1.5
    endloop
  endfacet
  facet normal -0.0603762 0.998176 0
    outer loop
      vertex 0 -1.8 1.5
      vertex 0.216966 -1.78688 -1.5
      vertex 0 -1.8 -1.5
    endloop
  endfacet
  facet normal 0.787182 0.61672 0
    outer loop
      vertex -1.34732 -1.19362 1.5
      vertex -1.48137 -1.02252 -1.5
      vertex -1.48137 -1.02252 1.5
    endloop
  endfacet
  facet normal 0.787182 0.61672 0
    outer loop
      vertex -1.48137 -1.02252 -1.5
      vertex -1.34732 -1.19362 1.5
      vertex -1.34732 -1.19362 -1.5
    endloop
  endfacet
  facet normal 0.707107 0.707107 0
    outer loop
      vertex -1.19362 -1.34732 1.5
      vertex -1.34732 -1.19362 -1.5
      vertex -1.34732 -1.19362 1.5
    endloop
  endfacet
  facet normal 0.707107 0.707107 0
    outer loop
      vertex -1.34732 -1.19362 -1.5
      vertex -1.19362 -1.34732 1.5
      vertex -1.19362 -1.34732 -1.5
    endloop
  endfacet
  facet normal -0.297502 0.954721 0
    outer loop
      vertex 0.638288 -1.68303 -1.5
      vertex 0.430768 -1.74769 1.5
      vertex 0.638288 -1.68303 1.5
    endloop
  endfacet
  facet normal -0.297502 0.954721 0
    outer loop
      vertex 0.430768 -1.74769 1.5
      vertex 0.638288 -1.68303 -1.5
      vertex 0.430768 -1.74769 -1.5
    endloop
  endfacet
  facet normal 0.517336 0.855782 -0
    outer loop
      vertex -0.836501 -1.59382 -1.5
      vertex -1.02252 -1.48137 1.5
      vertex -0.836501 -1.59382 1.5
    endloop
  endfacet
  facet normal 0.517336 0.855782 0
    outer loop
      vertex -1.02252 -1.48137 1.5
      vertex -0.836501 -1.59382 -1.5
      vertex -1.02252 -1.48137 -1.5
    endloop
  endfacet
  facet normal 0.297502 0.954721 -0
    outer loop
      vertex -0.430768 -1.74769 -1.5
      vertex -0.638288 -1.68303 1.5
      vertex -0.430768 -1.74769 1.5
    endloop
  endfacet
  facet normal 0.297502 0.954721 0
    outer loop
      vertex -0.638288 -1.68303 1.5
      vertex -0.430768 -1.74769 -1.5
      vertex -0.638288 -1.68303 -1.5
    endloop
  endfacet
  facet normal 0.855782 0.517336 0
    outer loop
      vertex -1.48137 -1.02252 1.5
      vertex -1.59382 -0.836501 -1.5
      vertex -1.59382 -0.836501 1.5
    endloop
  endfacet
  facet normal 0.855782 0.517336 0
    outer loop
      vertex -1.59382 -0.836501 -1.5
      vertex -1.48137 -1.02252 1.5
      vertex -1.48137 -1.02252 -1.5
    endloop
  endfacet
  facet normal 0.410414 0.911899 -0
    outer loop
      vertex -0.638288 -1.68303 -1.5
      vertex -0.836501 -1.59382 1.5
      vertex -0.638288 -1.68303 1.5
    endloop
  endfacet
  facet normal 0.410414 0.911899 0
    outer loop
      vertex -0.836501 -1.59382 1.5
      vertex -0.638288 -1.68303 -1.5
      vertex -0.836501 -1.59382 -1.5
    endloop
  endfacet
  facet normal 0.180255 0.98362 -0
    outer loop
      vertex -0.216966 -1.78688 -1.5
      vertex -0.430768 -1.74769 1.5
      vertex -0.216966 -1.78688 1.5
    endloop
  endfacet
  facet normal 0.180255 0.98362 0
    outer loop
      vertex -0.430768 -1.74769 1.5
      vertex -0.216966 -1.78688 -1.5
      vertex -0.430768 -1.74769 -1.5
    endloop
  endfacet
endsolid OpenSCAD_Model
