solid belt_tensioner
facet normal 0.0 0.0 1.0
  outer loop
    vertex 69.73883574014458 -3.299999999999999 1.8229930417191267
    vertex 72.93775752230091 0.03720208377666986 1.8229930417191267
    vertex 69.73883574014458 5.3 1.8229930417191267
  endloop
endfacet
facet normal 0.0 0.0 1.0
  outer loop
    vertex 72.93775752230091 0.03720208377666986 1.8229930417191267
    vertex 69.73883574014458 -3.299999999999999 1.8229930417191267
    vertex 73.23468854218194 -0.2926170992336558 1.8229930417191267
  endloop
endfacet
facet normal 0.0 0.0 1.0
  outer loop
    vertex 73.23468854218194 -0.2926170992336558 1.8229930417191267
    vertex 69.73883574014458 -3.299999999999999 1.8229930417191267
    vertex 73.6068653689146 -0.5343465630819642 1.8229930417191267
  endloop
endfacet
facet normal 0.0 0.0 1.0
  outer loop
    vertex 73.6068653689146 -0.5343465630819642 1.8229930417191267
    vertex 69.73883574014458 -3.299999999999999 1.8229930417191267
    vertex 78.93883574014458 -3.299999999999999 1.8229930417191267
  endloop
endfacet
facet normal 0.0 0.0 1.0
  outer loop
    vertex 69.73883574014458 5.3 1.8229930417191267
    vertex 72.93775752230091 0.03720208377666986 1.8229930417191267
    vertex 72.7363076675747 0.4326343536788289 1.8229930417191267
  endloop
endfacet
facet normal 0.0 0.0 1.0
  outer loop
    vertex 69.73883574014458 5.3 1.8229930417191267
    vertex 72.7363076675747 0.4326343536788289 1.8229930417191267
    vertex 72.64406745269126 0.8667316547617123 1.8229930417191267
  endloop
endfacet
facet normal 0.0 0.0 1.0
  outer loop
    vertex 73.6068653689146 -0.5343465630819642 1.8229930417191267
    vertex 78.93883574014458 -3.299999999999999 1.8229930417191267
    vertex 74.02892476680836 -0.6715128442838215 1.8229930417191267
  endloop
endfacet
facet normal 0.0 0.0 1.0
  outer loop
    vertex 74.02892476680836 -0.6715128442838215 1.8229930417191267
    vertex 78.93883574014458 -3.299999999999999 1.8229930417191267
    vertex 74.47210408538288 -0.6947682874533173 1.8229930417191267
  endloop
endfacet
facet normal 0.0 0.0 1.0
  outer loop
    vertex 74.47210408538288 -0.6947682874533173 1.8229930417191267
    vertex 78.93883574014458 -3.299999999999999 1.8229930417191267
    vertex 74.90620138646577 -0.6025280725698886 1.8229930417191267
  endloop
endfacet
facet normal 0.0 0.0 1.0
  outer loop
    vertex 74.90620138646577 -0.6025280725698886 1.8229930417191267
    vertex 78.93883574014458 -3.299999999999999 1.8229930417191267
    vertex 75.30163365636791 -0.40107821784367714 1.8229930417191267
  endloop
endfacet
facet normal 0.0 0.0 1.0
  outer loop
    vertex 75.30163365636791 -0.40107821784367714 1.8229930417191267
    vertex 78.93883574014458 -3.299999999999999 1.8229930417191267
    vertex 75.63145283937824 -0.10414719796265054 1.8229930417191267
  endloop
endfacet
facet normal 0.0 0.0 1.0
  outer loop
    vertex 75.63145283937824 -0.10414719796265054 1.8229930417191267
    vertex 78.93883574014458 -3.299999999999999 1.8229930417191267
    vertex 75.87318230322656 0.26802962877001246 1.8229930417191267
  endloop
endfacet
facet normal 0.0 0.0 1.0
  outer loop
    vertex 75.87318230322656 0.26802962877001246 1.8229930417191267
    vertex 78.93883574014458 -3.299999999999999 1.8229930417191267
    vertex 76.01034858442841 0.6900890266637665 1.8229930417191267
  endloop
endfacet
facet normal 0.0 0.0 1.0
  outer loop
    vertex 76.01034858442841 0.6900890266637665 1.8229930417191267
    vertex 78.93883574014458 -3.299999999999999 1.8229930417191267
    vertex 76.0336040275979 1.1332683452382861 1.8229930417191267
  endloop
endfacet
facet normal 0.0 0.0 1.0
  outer loop
    vertex 69.73883574014458 5.3 1.8229930417191267
    vertex 73.37603782392125 2.4010782178436765 1.8229930417191267
    vertex 78.93883574014458 5.3 1.8229930417191267
  endloop
endfacet
facet normal 0.0 0.0 1.0
  outer loop
    vertex 73.37603782392125 2.4010782178436765 1.8229930417191267
    vertex 69.73883574014458 5.3 1.8229930417191267
    vertex 73.04621864091092 2.104147197962649 1.8229930417191267
  endloop
endfacet
facet normal 0.0 0.0 1.0
  outer loop
    vertex 73.04621864091092 2.104147197962649 1.8229930417191267
    vertex 69.73883574014458 5.3 1.8229930417191267
    vertex 72.80448917706262 1.7319703712299868 1.8229930417191267
  endloop
endfacet
facet normal 0.0 0.0 1.0
  outer loop
    vertex 72.80448917706262 1.7319703712299868 1.8229930417191267
    vertex 69.73883574014458 5.3 1.8229930417191267
    vertex 72.66732289586076 1.3099109733362326 1.8229930417191267
  endloop
endfacet
facet normal 0.0 0.0 1.0
  outer loop
    vertex 72.66732289586076 1.3099109733362326 1.8229930417191267
    vertex 69.73883574014458 5.3 1.8229930417191267
    vertex 72.64406745269126 0.8667316547617123 1.8229930417191267
  endloop
endfacet
facet normal 0.0 0.0 1.0
  outer loop
    vertex 78.93883574014458 5.3 1.8229930417191267
    vertex 73.37603782392125 2.4010782178436765 1.8229930417191267
    vertex 73.77147009382341 2.602528072569888 1.8229930417191267
  endloop
endfacet
facet normal 0.0 0.0 1.0
  outer loop
    vertex 78.93883574014458 5.3 1.8229930417191267
    vertex 73.77147009382341 2.602528072569888 1.8229930417191267
    vertex 74.2055673949063 2.694768287453317 1.8229930417191267
  endloop
endfacet
facet normal 0.0 0.0 1.0
  outer loop
    vertex 78.93883574014458 5.3 1.8229930417191267
    vertex 74.2055673949063 2.694768287453317 1.8229930417191267
    vertex 74.64874671348082 2.6715128442838205 1.8229930417191267
  endloop
endfacet
facet normal 0.0 0.0 1.0
  outer loop
    vertex 78.93883574014458 5.3 1.8229930417191267
    vertex 74.64874671348082 2.6715128442838205 1.8229930417191267
    vertex 75.07080611137457 2.534346563081963 1.8229930417191267
  endloop
endfacet
facet normal 0.0 0.0 1.0
  outer loop
    vertex 78.93883574014458 5.3 1.8229930417191267
    vertex 75.07080611137457 2.534346563081963 1.8229930417191267
    vertex 75.44298293810724 2.2926170992336545 1.8229930417191267
  endloop
endfacet
facet normal 0.0 0.0 1.0
  outer loop
    vertex 78.93883574014458 5.3 1.8229930417191267
    vertex 75.44298293810724 2.2926170992336545 1.8229930417191267
    vertex 75.73991395798826 1.9627979162233304 1.8229930417191267
  endloop
endfacet
facet normal 0.0 0.0 1.0
  outer loop
    vertex 78.93883574014458 5.3 1.8229930417191267
    vertex 75.73991395798826 1.9627979162233304 1.8229930417191267
    vertex 75.94136381271447 1.5673656463211698 1.8229930417191267
  endloop
endfacet
facet normal 0.0 0.0 1.0
  outer loop
    vertex 78.93883574014458 5.3 1.8229930417191267
    vertex 75.94136381271447 1.5673656463211698 1.8229930417191267
    vertex 76.0336040275979 1.1332683452382861 1.8229930417191267
  endloop
endfacet
facet normal 0.0 0.0 1.0
  outer loop
    vertex 78.93883574014458 5.3 1.8229930417191267
    vertex 76.0336040275979 1.1332683452382861 1.8229930417191267
    vertex 78.93883574014458 -3.299999999999999 1.8229930417191267
  endloop
endfacet
facet normal 1.4331406723424096e-31 3.9411368489416264e-32 1.0
  outer loop
    vertex 72.7363076675747 0.4326343536788289 1.3229930417191267
    vertex 72.66732289586076 1.3099109733362326 1.3229930417191267
    vertex 72.64406745269126 0.8667316547617123 1.3229930417191267
  endloop
endfacet
facet normal 1.4331406723424096e-31 3.9411368489416264e-32 1.0
  outer loop
    vertex 72.66732289586076 1.3099109733362326 1.3229930417191267
    vertex 72.7363076675747 0.4326343536788289 1.3229930417191267
    vertex 72.80448917706262 1.7319703712299868 1.3229930417191267
  endloop
endfacet
facet normal 1.4331406723424096e-31 3.9411368489416264e-32 1.0
  outer loop
    vertex 72.80448917706262 1.7319703712299868 1.3229930417191267
    vertex 72.7363076675747 0.4326343536788289 1.3229930417191267
    vertex 72.93775752230091 0.03720208377666986 1.3229930417191267
  endloop
endfacet
facet normal 1.4331406723424096e-31 3.9411368489416264e-32 1.0
  outer loop
    vertex 72.80448917706262 1.7319703712299868 1.3229930417191267
    vertex 72.93775752230091 0.03720208377666986 1.3229930417191267
    vertex 73.04621864091092 2.104147197962649 1.3229930417191267
  endloop
endfacet
facet normal 1.4331406723424096e-31 3.9411368489416264e-32 1.0
  outer loop
    vertex 73.04621864091092 2.104147197962649 1.3229930417191267
    vertex 72.93775752230091 0.03720208377666986 1.3229930417191267
    vertex 73.23468854218194 -0.2926170992336558 1.3229930417191267
  endloop
endfacet
facet normal 1.4331406723424096e-31 3.9411368489416264e-32 1.0
  outer loop
    vertex 73.04621864091092 2.104147197962649 1.3229930417191267
    vertex 73.23468854218194 -0.2926170992336558 1.3229930417191267
    vertex 73.37603782392125 2.4010782178436765 1.3229930417191267
  endloop
endfacet
facet normal 1.4331406723424096e-31 3.9411368489416264e-32 1.0
  outer loop
    vertex 73.37603782392125 2.4010782178436765 1.3229930417191267
    vertex 73.23468854218194 -0.2926170992336558 1.3229930417191267
    vertex 73.6068653689146 -0.5343465630819642 1.3229930417191267
  endloop
endfacet
facet normal 1.4331406723424096e-31 3.9411368489416264e-32 1.0
  outer loop
    vertex 73.37603782392125 2.4010782178436765 1.3229930417191267
    vertex 73.6068653689146 -0.5343465630819642 1.3229930417191267
    vertex 73.77147009382341 2.602528072569888 1.3229930417191267
  endloop
endfacet
facet normal 1.4331406723424096e-31 3.9411368489416264e-32 1.0
  outer loop
    vertex 73.77147009382341 2.602528072569888 1.3229930417191267
    vertex 73.6068653689146 -0.5343465630819642 1.3229930417191267
    vertex 74.02892476680836 -0.6715128442838215 1.3229930417191267
  endloop
endfacet
facet normal 1.4331406723424096e-31 3.9411368489416264e-32 1.0
  outer loop
    vertex 73.77147009382341 2.602528072569888 1.3229930417191267
    vertex 74.02892476680836 -0.6715128442838215 1.3229930417191267
    vertex 74.2055673949063 2.694768287453317 1.3229930417191267
  endloop
endfacet
facet normal 1.4331406723424096e-31 3.9411368489416264e-32 1.0
  outer loop
    vertex 74.2055673949063 2.694768287453317 1.3229930417191267
    vertex 74.02892476680836 -0.6715128442838215 1.3229930417191267
    vertex 74.47210408538288 -0.6947682874533173 1.3229930417191267
  endloop
endfacet
facet normal 1.4331406723424096e-31 3.9411368489416264e-32 1.0
  outer loop
    vertex 74.2055673949063 2.694768287453317 1.3229930417191267
    vertex 74.47210408538288 -0.6947682874533173 1.3229930417191267
    vertex 74.64874671348082 2.6715128442838205 1.3229930417191267
  endloop
endfacet
facet normal 1.4331406723424096e-31 3.9411368489416264e-32 1.0
  outer loop
    vertex 74.64874671348082 2.6715128442838205 1.3229930417191267
    vertex 74.47210408538288 -0.6947682874533173 1.3229930417191267
    vertex 74.90620138646577 -0.6025280725698886 1.3229930417191267
  endloop
endfacet
facet normal 1.4331406723424096e-31 3.9411368489416264e-32 1.0
  outer loop
    vertex 74.64874671348082 2.6715128442838205 1.3229930417191267
    vertex 74.90620138646577 -0.6025280725698886 1.3229930417191267
    vertex 75.07080611137457 2.534346563081963 1.3229930417191267
  endloop
endfacet
facet normal 1.4331406723424096e-31 3.9411368489416264e-32 1.0
  outer loop
    vertex 75.07080611137457 2.534346563081963 1.3229930417191267
    vertex 74.90620138646577 -0.6025280725698886 1.3229930417191267
    vertex 75.30163365636791 -0.40107821784367714 1.3229930417191267
  endloop
endfacet
facet normal 1.4331406723424096e-31 3.9411368489416264e-32 1.0
  outer loop
    vertex 75.07080611137457 2.534346563081963 1.3229930417191267
    vertex 75.30163365636791 -0.40107821784367714 1.3229930417191267
    vertex 75.44298293810724 2.2926170992336545 1.3229930417191267
  endloop
endfacet
facet normal 1.4331406723424096e-31 3.9411368489416264e-32 1.0
  outer loop
    vertex 75.44298293810724 2.2926170992336545 1.3229930417191267
    vertex 75.30163365636791 -0.40107821784367714 1.3229930417191267
    vertex 75.63145283937824 -0.10414719796265054 1.3229930417191267
  endloop
endfacet
facet normal 1.4331406723424096e-31 3.9411368489416264e-32 1.0
  outer loop
    vertex 75.44298293810724 2.2926170992336545 1.3229930417191267
    vertex 75.63145283937824 -0.10414719796265054 1.3229930417191267
    vertex 75.73991395798826 1.9627979162233304 1.3229930417191267
  endloop
endfacet
facet normal 1.4331406723424096e-31 3.9411368489416264e-32 1.0
  outer loop
    vertex 75.73991395798826 1.9627979162233304 1.3229930417191267
    vertex 75.63145283937824 -0.10414719796265054 1.3229930417191267
    vertex 75.87318230322656 0.26802962877001246 1.3229930417191267
  endloop
endfacet
facet normal 1.4331406723424096e-31 3.9411368489416264e-32 1.0
  outer loop
    vertex 75.73991395798826 1.9627979162233304 1.3229930417191267
    vertex 75.87318230322656 0.26802962877001246 1.3229930417191267
    vertex 75.94136381271447 1.5673656463211698 1.3229930417191267
  endloop
endfacet
facet normal 1.4331406723424096e-31 3.9411368489416264e-32 1.0
  outer loop
    vertex 75.94136381271447 1.5673656463211698 1.3229930417191267
    vertex 75.87318230322656 0.26802962877001246 1.3229930417191267
    vertex 76.01034858442841 0.6900890266637665 1.3229930417191267
  endloop
endfacet
facet normal 1.4331406723424096e-31 3.9411368489416264e-32 1.0
  outer loop
    vertex 75.94136381271447 1.5673656463211698 1.3229930417191267
    vertex 76.01034858442841 0.6900890266637665 1.3229930417191267
    vertex 76.0336040275979 1.1332683452382861 1.3229930417191267
  endloop
endfacet
facet normal 0.7431890903422701 0.6690814419756604 -1.328788665201992e-31
  outer loop
    vertex 72.93775752230091 0.03720208377666986 1.3229930417191267
    vertex 73.23468854218194 -0.2926170992336558 1.8229930417191267
    vertex 73.23468854218194 -0.2926170992336558 1.3229930417191267
  endloop
endfacet
facet normal 0.7431890903422701 0.6690814419756604 -1.328788665201992e-31
  outer loop
    vertex 73.23468854218194 -0.2926170992336558 1.8229930417191267
    vertex 72.93775752230091 0.03720208377666986 1.3229930417191267
    vertex 72.93775752230091 0.03720208377666986 1.8229930417191267
  endloop
endfacet
facet normal 0.5446945162699187 0.8386345353880195 -1.1111412122895715e-31
  outer loop
    vertex 73.23468854218194 -0.2926170992336558 1.8229930417191267
    vertex 73.6068653689146 -0.5343465630819642 1.3229930417191267
    vertex 73.23468854218194 -0.2926170992336558 1.3229930417191267
  endloop
endfacet
facet normal 0.5446945162699187 0.8386345353880195 -1.1111412122895715e-31
  outer loop
    vertex 73.6068653689146 -0.5343465630819642 1.3229930417191267
    vertex 73.23468854218194 -0.2926170992336558 1.8229930417191267
    vertex 73.6068653689146 -0.5343465630819642 1.8229930417191267
  endloop
endfacet
facet normal 0.30907991106402416 0.9510360711227809 -8.177713220072937e-32
  outer loop
    vertex 73.6068653689146 -0.5343465630819642 1.8229930417191267
    vertex 74.02892476680836 -0.6715128442838215 1.3229930417191267
    vertex 73.6068653689146 -0.5343465630819642 1.3229930417191267
  endloop
endfacet
facet normal 0.30907991106402416 0.9510360711227809 -8.177713220072937e-32
  outer loop
    vertex 74.02892476680836 -0.6715128442838215 1.3229930417191267
    vertex 73.6068653689146 -0.5343465630819642 1.8229930417191267
    vertex 74.02892476680836 -0.6715128442838215 1.8229930417191267
  endloop
endfacet
facet normal 0.05240202069781607 0.998626070271944 -4.686716675612218e-32
  outer loop
    vertex 74.02892476680836 -0.6715128442838215 1.8229930417191267
    vertex 74.47210408538288 -0.6947682874533173 1.3229930417191267
    vertex 74.02892476680836 -0.6715128442838215 1.3229930417191267
  endloop
endfacet
facet normal 0.05240202069781607 0.998626070271944 -4.686716675612218e-32
  outer loop
    vertex 74.47210408538288 -0.6947682874533173 1.3229930417191267
    vertex 74.02892476680836 -0.6715128442838215 1.8229930417191267
    vertex 74.47210408538288 -0.6947682874533173 1.8229930417191267
  endloop
endfacet
facet normal -0.20784698078051084 0.9781613530396843 -8.763281348740876e-33
  outer loop
    vertex 74.47210408538288 -0.6947682874533173 1.8229930417191267
    vertex 74.90620138646577 -0.6025280725698886 1.3229930417191267
    vertex 74.47210408538288 -0.6947682874533173 1.3229930417191267
  endloop
endfacet
facet normal -0.20784698078051084 0.9781613530396843 -8.763281348740876e-33
  outer loop
    vertex 74.90620138646577 -0.6025280725698886 1.3229930417191267
    vertex 74.47210408538288 -0.6947682874533173 1.8229930417191267
    vertex 74.90620138646577 -0.6025280725698886 1.8229930417191267
  endloop
endfacet
facet normal -0.45393155400202523 0.8910365560858358 2.993780720055043e-32
  outer loop
    vertex 74.90620138646577 -0.6025280725698886 1.8229930417191267
    vertex 75.30163365636791 -0.40107821784367714 1.3229930417191267
    vertex 74.90620138646577 -0.6025280725698886 1.3229930417191267
  endloop
endfacet
facet normal -0.45393155400202523 0.8910365560858358 2.993780720055043e-32
  outer loop
    vertex 75.30163365636791 -0.40107821784367714 1.3229930417191267
    vertex 74.90620138646577 -0.6025280725698886 1.8229930417191267
    vertex 75.30163365636791 -0.40107821784367714 1.8229930417191267
  endloop
endfacet
facet normal -0.6690814419756609 0.7431890903422699 6.659868366368949e-32
  outer loop
    vertex 75.30163365636791 -0.40107821784367714 1.8229930417191267
    vertex 75.63145283937824 -0.10414719796265054 1.3229930417191267
    vertex 75.30163365636791 -0.40107821784367714 1.3229930417191267
  endloop
endfacet
facet normal -0.6690814419756609 0.7431890903422699 6.659868366368949e-32
  outer loop
    vertex 75.63145283937824 -0.10414719796265054 1.3229930417191267
    vertex 75.30163365636791 -0.40107821784367714 1.8229930417191267
    vertex 75.63145283937824 -0.10414719796265054 1.8229930417191267
  endloop
endfacet
facet normal -0.8386345353880194 0.5446945162699192 9.87209698946769e-32
  outer loop
    vertex 75.87318230322656 0.26802962877001246 1.8229930417191267
    vertex 75.63145283937824 -0.10414719796265054 1.3229930417191267
    vertex 75.63145283937824 -0.10414719796265054 1.8229930417191267
  endloop
endfacet
facet normal -0.8386345353880194 0.5446945162699192 9.87209698946769e-32
  outer loop
    vertex 75.63145283937824 -0.10414719796265054 1.3229930417191267
    vertex 75.87318230322656 0.26802962877001246 1.8229930417191267
    vertex 75.87318230322656 0.26802962877001246 1.3229930417191267
  endloop
endfacet
facet normal -0.9510360711227812 0.3090799110640232 1.241155851714584e-31
  outer loop
    vertex 76.01034858442841 0.6900890266637665 1.8229930417191267
    vertex 75.87318230322656 0.26802962877001246 1.3229930417191267
    vertex 75.87318230322656 0.26802962877001246 1.8229930417191267
  endloop
endfacet
facet normal -0.9510360711227812 0.3090799110640232 1.241155851714584e-31
  outer loop
    vertex 75.87318230322656 0.26802962877001246 1.3229930417191267
    vertex 76.01034858442841 0.6900890266637665 1.8229930417191267
    vertex 76.01034858442841 0.6900890266637665 1.3229930417191267
  endloop
endfacet
facet normal -0.9986260702719439 0.05240202069781771 1.410519284295075e-31
  outer loop
    vertex 76.0336040275979 1.1332683452382861 1.8229930417191267
    vertex 76.01034858442841 0.6900890266637665 1.3229930417191267
    vertex 76.01034858442841 0.6900890266637665 1.8229930417191267
  endloop
endfacet
facet normal -0.9986260702719439 0.05240202069781771 1.410519284295075e-31
  outer loop
    vertex 76.01034858442841 0.6900890266637665 1.3229930417191267
    vertex 76.0336040275979 1.1332683452382861 1.8229930417191267
    vertex 76.0336040275979 1.1332683452382861 1.3229930417191267
  endloop
endfacet
facet normal -0.9781613530396842 -0.20784698078051164 1.4837581586441876e-31
  outer loop
    vertex 75.94136381271447 1.5673656463211698 1.8229930417191267
    vertex 76.0336040275979 1.1332683452382861 1.3229930417191267
    vertex 76.0336040275979 1.1332683452382861 1.8229930417191267
  endloop
endfacet
facet normal -0.9781613530396842 -0.20784698078051164 1.4837581586441876e-31
  outer loop
    vertex 76.0336040275979 1.1332683452382861 1.3229930417191267
    vertex 75.94136381271447 1.5673656463211698 1.8229930417191267
    vertex 75.94136381271447 1.5673656463211698 1.3229930417191267
  endloop
endfacet
facet normal -0.8910365560858361 -0.45393155400202434 1.4558813665079918e-31
  outer loop
    vertex 75.73991395798826 1.9627979162233304 1.8229930417191267
    vertex 75.94136381271447 1.5673656463211698 1.3229930417191267
    vertex 75.94136381271447 1.5673656463211698 1.8229930417191267
  endloop
endfacet
facet normal -0.8910365560858361 -0.45393155400202434 1.4558813665079918e-31
  outer loop
    vertex 75.94136381271447 1.5673656463211698 1.3229930417191267
    vertex 75.73991395798826 1.9627979162233304 1.8229930417191267
    vertex 75.73991395798826 1.9627979162233304 1.3229930417191267
  endloop
endfacet
facet normal -0.7431890903422692 -0.6690814419756614 1.3287886652019911e-31
  outer loop
    vertex 75.44298293810724 2.2926170992336545 1.8229930417191267
    vertex 75.73991395798826 1.9627979162233304 1.3229930417191267
    vertex 75.73991395798826 1.9627979162233304 1.8229930417191267
  endloop
endfacet
facet normal -0.7431890903422692 -0.6690814419756614 1.3287886652019911e-31
  outer loop
    vertex 75.73991395798826 1.9627979162233304 1.3229930417191267
    vertex 75.44298293810724 2.2926170992336545 1.8229930417191267
    vertex 75.44298293810724 2.2926170992336545 1.3229930417191267
  endloop
endfacet
facet normal -0.544694516269919 -0.8386345353880192 1.1111412122895717e-31
  outer loop
    vertex 75.44298293810724 2.2926170992336545 1.8229930417191267
    vertex 75.07080611137457 2.534346563081963 1.3229930417191267
    vertex 75.44298293810724 2.2926170992336545 1.3229930417191267
  endloop
endfacet
facet normal -0.544694516269919 -0.8386345353880192 1.1111412122895717e-31
  outer loop
    vertex 75.07080611137457 2.534346563081963 1.3229930417191267
    vertex 75.44298293810724 2.2926170992336545 1.8229930417191267
    vertex 75.07080611137457 2.534346563081963 1.8229930417191267
  endloop
endfacet
facet normal -0.3090799110640228 -0.9510360711227812 8.177713220072921e-32
  outer loop
    vertex 75.07080611137457 2.534346563081963 1.8229930417191267
    vertex 74.64874671348082 2.6715128442838205 1.3229930417191267
    vertex 75.07080611137457 2.534346563081963 1.3229930417191267
  endloop
endfacet
facet normal -0.3090799110640228 -0.9510360711227812 8.177713220072921e-32
  outer loop
    vertex 74.64874671348082 2.6715128442838205 1.3229930417191267
    vertex 75.07080611137457 2.534346563081963 1.8229930417191267
    vertex 74.64874671348082 2.6715128442838205 1.8229930417191267
  endloop
endfacet
facet normal -0.05240202069781624 -0.998626070271944 4.686716675612221e-32
  outer loop
    vertex 74.64874671348082 2.6715128442838205 1.8229930417191267
    vertex 74.2055673949063 2.694768287453317 1.3229930417191267
    vertex 74.64874671348082 2.6715128442838205 1.3229930417191267
  endloop
endfacet
facet normal -0.05240202069781624 -0.998626070271944 4.686716675612221e-32
  outer loop
    vertex 74.2055673949063 2.694768287453317 1.3229930417191267
    vertex 74.64874671348082 2.6715128442838205 1.8229930417191267
    vertex 74.2055673949063 2.694768287453317 1.8229930417191267
  endloop
endfacet
facet normal 0.20784698078051084 -0.9781613530396843 8.763281348740876e-33
  outer loop
    vertex 74.2055673949063 2.694768287453317 1.8229930417191267
    vertex 73.77147009382341 2.602528072569888 1.3229930417191267
    vertex 74.2055673949063 2.694768287453317 1.3229930417191267
  endloop
endfacet
facet normal 0.20784698078051084 -0.9781613530396843 8.763281348740876e-33
  outer loop
    vertex 73.77147009382341 2.602528072569888 1.3229930417191267
    vertex 74.2055673949063 2.694768287453317 1.8229930417191267
    vertex 73.77147009382341 2.602528072569888 1.8229930417191267
  endloop
endfacet
facet normal 0.4539315540020255 -0.8910365560858355 -2.9937807200550476e-32
  outer loop
    vertex 73.77147009382341 2.602528072569888 1.8229930417191267
    vertex 73.37603782392125 2.4010782178436765 1.3229930417191267
    vertex 73.77147009382341 2.602528072569888 1.3229930417191267
  endloop
endfacet
facet normal 0.4539315540020255 -0.8910365560858355 -2.9937807200550476e-32
  outer loop
    vertex 73.37603782392125 2.4010782178436765 1.3229930417191267
    vertex 73.77147009382341 2.602528072569888 1.8229930417191267
    vertex 73.37603782392125 2.4010782178436765 1.8229930417191267
  endloop
endfacet
facet normal 0.6690814419756611 -0.7431890903422697 -6.659868366368953e-32
  outer loop
    vertex 73.37603782392125 2.4010782178436765 1.8229930417191267
    vertex 73.04621864091092 2.104147197962649 1.3229930417191267
    vertex 73.37603782392125 2.4010782178436765 1.3229930417191267
  endloop
endfacet
facet normal 0.6690814419756611 -0.7431890903422697 -6.659868366368953e-32
  outer loop
    vertex 73.04621864091092 2.104147197962649 1.3229930417191267
    vertex 73.37603782392125 2.4010782178436765 1.8229930417191267
    vertex 73.04621864091092 2.104147197962649 1.8229930417191267
  endloop
endfacet
facet normal 0.838634535388019 -0.5446945162699193 -9.872096989467685e-32
  outer loop
    vertex 73.04621864091092 2.104147197962649 1.3229930417191267
    vertex 72.80448917706262 1.7319703712299868 1.8229930417191267
    vertex 72.80448917706262 1.7319703712299868 1.3229930417191267
  endloop
endfacet
facet normal 0.838634535388019 -0.5446945162699193 -9.872096989467685e-32
  outer loop
    vertex 72.80448917706262 1.7319703712299868 1.8229930417191267
    vertex 73.04621864091092 2.104147197962649 1.3229930417191267
    vertex 73.04621864091092 2.104147197962649 1.8229930417191267
  endloop
endfacet
facet normal 0.9510360711227811 -0.3090799110640235 -1.2411558517145839e-31
  outer loop
    vertex 72.80448917706262 1.7319703712299868 1.3229930417191267
    vertex 72.66732289586076 1.3099109733362326 1.8229930417191267
    vertex 72.66732289586076 1.3099109733362326 1.3229930417191267
  endloop
endfacet
facet normal 0.9510360711227811 -0.3090799110640235 -1.2411558517145839e-31
  outer loop
    vertex 72.66732289586076 1.3099109733362326 1.8229930417191267
    vertex 72.80448917706262 1.7319703712299868 1.3229930417191267
    vertex 72.80448917706262 1.7319703712299868 1.8229930417191267
  endloop
endfacet
facet normal 0.998626070271944 -0.05240202069781607 -1.4105192842950758e-31
  outer loop
    vertex 72.66732289586076 1.3099109733362326 1.3229930417191267
    vertex 72.64406745269126 0.8667316547617123 1.8229930417191267
    vertex 72.64406745269126 0.8667316547617123 1.3229930417191267
  endloop
endfacet
facet normal 0.998626070271944 -0.05240202069781607 -1.4105192842950758e-31
  outer loop
    vertex 72.64406745269126 0.8667316547617123 1.8229930417191267
    vertex 72.66732289586076 1.3099109733362326 1.3229930417191267
    vertex 72.66732289586076 1.3099109733362326 1.8229930417191267
  endloop
endfacet
facet normal 0.9781613530396842 0.20784698078051106 -1.4837581586441876e-31
  outer loop
    vertex 72.64406745269126 0.8667316547617123 1.3229930417191267
    vertex 72.7363076675747 0.4326343536788289 1.8229930417191267
    vertex 72.7363076675747 0.4326343536788289 1.3229930417191267
  endloop
endfacet
facet normal 0.9781613530396842 0.20784698078051106 -1.4837581586441876e-31
  outer loop
    vertex 72.7363076675747 0.4326343536788289 1.8229930417191267
    vertex 72.64406745269126 0.8667316547617123 1.3229930417191267
    vertex 72.64406745269126 0.8667316547617123 1.8229930417191267
  endloop
endfacet
facet normal 0.8910365560858355 0.45393155400202523 -1.4558813665079912e-31
  outer loop
    vertex 72.7363076675747 0.4326343536788289 1.3229930417191267
    vertex 72.93775752230091 0.03720208377666986 1.8229930417191267
    vertex 72.93775752230091 0.03720208377666986 1.3229930417191267
  endloop
endfacet
facet normal 0.8910365560858355 0.45393155400202523 -1.4558813665079912e-31
  outer loop
    vertex 72.93775752230091 0.03720208377666986 1.8229930417191267
    vertex 72.7363076675747 0.4326343536788289 1.3229930417191267
    vertex 72.7363076675747 0.4326343536788289 1.8229930417191267
  endloop
endfacet
facet normal 0.999998248008369 -1.2455534774694849e-05 -0.001871850702484556
  outer loop
    vertex 78.93883574014458 -2.2999999999999985 1.3229930417191282
    vertex 78.93883574014458 -3.299999999999999 1.8229930417191267
    vertex 78.93682522395466 -3.299999999999999 1.3229930417191282
  endloop
endfacet
facet normal 0.999998248008369 -1.2455534774694849e-05 -0.001871850702484556
  outer loop
    vertex 78.93883574014458 -3.299999999999999 1.8229930417191267
    vertex 78.93883574014458 -2.2999999999999985 1.3229930417191282
    vertex 78.93883574014458 5.3 1.8229930417191267
  endloop
endfacet
facet normal 0.999998248008369 -1.2455534774694849e-05 -0.001871850702484556
  outer loop
    vertex 78.93883574014458 5.3 1.8229930417191267
    vertex 78.93883574014458 -2.2999999999999985 1.3229930417191282
    vertex 78.93883574014458 4.300000000000001 1.3229930417191282
  endloop
endfacet
facet normal 0.999998248008369 -1.2455534774694849e-05 -0.001871850702484556
  outer loop
    vertex 78.93883574014458 5.3 1.8229930417191267
    vertex 78.93883574014458 4.300000000000001 1.3229930417191282
    vertex 78.9371025483706 5.3 1.3229930417191282
  endloop
endfacet
facet normal 0.9569403357322095 0.0 -0.29028467725446033
  outer loop
    vertex 78.86271527265588 4.300000000000001 0.9403096093540382
    vertex 78.91962102054782 -2.2999999999999985 1.1279027197029998
    vertex 78.86271527265588 -2.2999999999999985 0.9403096093540382
  endloop
endfacet
facet normal 0.9569403357322095 0.0 -0.29028467725446033
  outer loop
    vertex 78.91962102054782 -2.2999999999999985 1.1279027197029998
    vertex 78.86271527265588 4.300000000000001 0.9403096093540382
    vertex 78.91962102054782 4.300000000000001 1.1279027197029998
  endloop
endfacet
facet normal 0.8819212643483404 0.0 -0.471396736826025
  outer loop
    vertex 78.77030535244714 4.300000000000001 0.7674228086995258
    vertex 78.86271527265588 -2.2999999999999985 0.9403096093540382
    vertex 78.77030535244714 -2.2999999999999985 0.7674228086995258
  endloop
endfacet
facet normal 0.8819212643483404 0.0 -0.471396736826025
  outer loop
    vertex 78.86271527265588 -2.2999999999999985 0.9403096093540382
    vertex 78.77030535244714 4.300000000000001 0.7674228086995258
    vertex 78.86271527265588 4.300000000000001 0.9403096093540382
  endloop
endfacet
facet normal 0.7730104533627503 0.0 -0.6343932841636293
  outer loop
    vertex 78.64594252133114 4.300000000000001 0.6158862605325806
    vertex 78.77030535244714 -2.2999999999999985 0.7674228086995258
    vertex 78.64594252133114 -2.2999999999999985 0.6158862605325806
  endloop
endfacet
facet normal 0.7730104533627503 0.0 -0.6343932841636293
  outer loop
    vertex 78.77030535244714 -2.2999999999999985 0.7674228086995258
    vertex 78.64594252133114 4.300000000000001 0.6158862605325806
    vertex 78.77030535244714 4.300000000000001 0.7674228086995258
  endloop
endfacet
facet normal 0.4713967368259888 0.0 -0.8819212643483597
  outer loop
    vertex 78.49440597316419 4.300000000000001 0.491523429416583
    vertex 78.32151917250968 -2.2999999999999985 0.3991135092078415
    vertex 78.32151917250968 4.300000000000001 0.3991135092078415
  endloop
endfacet
facet normal 0.4713967368259888 0.0 -0.8819212643483597
  outer loop
    vertex 78.32151917250968 -2.2999999999999985 0.3991135092078415
    vertex 78.49440597316419 4.300000000000001 0.491523429416583
    vertex 78.49440597316419 -2.2999999999999985 0.491523429416583
  endloop
endfacet
facet normal 0.9951847266721994 0.0 -0.09801714032953683
  outer loop
    vertex 78.91962102054782 4.300000000000001 1.1279027197029998
    vertex 78.93883574014458 -2.2999999999999985 1.3229930417191282
    vertex 78.91962102054782 -2.2999999999999985 1.1279027197029998
  endloop
endfacet
facet normal 0.9951847266721994 0.0 -0.09801714032953683
  outer loop
    vertex 78.93883574014458 -2.2999999999999985 1.3229930417191282
    vertex 78.91962102054782 4.300000000000001 1.1279027197029998
    vertex 78.93883574014458 4.300000000000001 1.3229930417191282
  endloop
endfacet
facet normal 0.09801714032955877 0.0 -0.9951847266721972
  outer loop
    vertex 78.13392606216073 4.300000000000001 0.34220776131589786
    vertex 77.9388357401446 -2.2999999999999985 0.32299304171912824
    vertex 77.9388357401446 4.300000000000001 0.32299304171912824
  endloop
endfacet
facet normal 0.09801714032955877 0.0 -0.9951847266721972
  outer loop
    vertex 77.9388357401446 -2.2999999999999985 0.32299304171912824
    vertex 78.13392606216073 4.300000000000001 0.34220776131589786
    vertex 78.13392606216073 -2.2999999999999985 0.34220776131589786
  endloop
endfacet
facet normal 0.29028467725447477 0.0 -0.956940335732205
  outer loop
    vertex 78.32151917250968 4.300000000000001 0.3991135092078415
    vertex 78.13392606216073 -2.2999999999999985 0.34220776131589786
    vertex 78.13392606216073 4.300000000000001 0.34220776131589786
  endloop
endfacet
facet normal 0.29028467725447477 0.0 -0.956940335732205
  outer loop
    vertex 78.13392606216073 -2.2999999999999985 0.34220776131589786
    vertex 78.32151917250968 4.300000000000001 0.3991135092078415
    vertex 78.32151917250968 -2.2999999999999985 0.3991135092078415
  endloop
endfacet
facet normal 0.6343932841636396 0.0 -0.773010453362742
  outer loop
    vertex 78.64594252133114 4.300000000000001 0.6158862605325806
    vertex 78.49440597316419 -2.2999999999999985 0.491523429416583
    vertex 78.49440597316419 4.300000000000001 0.491523429416583
  endloop
endfacet
facet normal 0.6343932841636396 0.0 -0.773010453362742
  outer loop
    vertex 78.49440597316419 -2.2999999999999985 0.491523429416583
    vertex 78.64594252133114 4.300000000000001 0.6158862605325806
    vertex 78.64594252133114 -2.2999999999999985 0.6158862605325806
  endloop
endfacet
facet normal 0.0 0.0 -1.0
  outer loop
    vertex 77.9388357401446 4.300000000000001 0.32299304171912824
    vertex 70.73883574014458 -2.2999999999999985 0.32299304171912824
    vertex 70.73883574014458 4.300000000000001 0.32299304171912824
  endloop
endfacet
facet normal 0.0 0.0 -1.0
  outer loop
    vertex 70.73883574014458 -2.2999999999999985 0.32299304171912824
    vertex 77.9388357401446 4.300000000000001 0.32299304171912824
    vertex 77.9388357401446 -2.2999999999999985 0.32299304171912824
  endloop
endfacet
facet normal -0.999998248008369 -1.2455534774694849e-05 -0.001871850702484556
  outer loop
    vertex 69.73883574014458 5.3 1.8229930417191267
    vertex 69.74084625633452 -3.299999999999999 1.3229930417191282
    vertex 69.73883574014458 -3.299999999999999 1.8229930417191267
  endloop
endfacet
facet normal -0.999998248008369 -1.2455534774694849e-05 -0.001871850702484556
  outer loop
    vertex 69.74084625633452 -3.299999999999999 1.3229930417191282
    vertex 69.73883574014458 5.3 1.8229930417191267
    vertex 69.73883574014458 -2.2999999999999985 1.3229930417191282
  endloop
endfacet
facet normal -0.999998248008369 -1.2455534774694849e-05 -0.001871850702484556
  outer loop
    vertex 69.73883574014458 -2.2999999999999985 1.3229930417191282
    vertex 69.73883574014458 5.3 1.8229930417191267
    vertex 69.73883574014458 4.300000000000001 1.3229930417191282
  endloop
endfacet
facet normal -0.999998248008369 -1.2455534774694849e-05 -0.001871850702484556
  outer loop
    vertex 69.73883574014458 4.300000000000001 1.3229930417191282
    vertex 69.73883574014458 5.3 1.8229930417191267
    vertex 69.74056893191857 5.3 1.3229930417191282
  endloop
endfacet
facet normal -0.9569403357322095 0.0 -0.29028467725446033
  outer loop
    vertex 69.75805045974136 4.300000000000001 1.1279027197029998
    vertex 69.81495620763329 -2.2999999999999985 0.9403096093540382
    vertex 69.75805045974136 -2.2999999999999985 1.1279027197029998
  endloop
endfacet
facet normal -0.9569403357322095 0.0 -0.29028467725446033
  outer loop
    vertex 69.81495620763329 -2.2999999999999985 0.9403096093540382
    vertex 69.75805045974136 4.300000000000001 1.1279027197029998
    vertex 69.81495620763329 4.300000000000001 0.9403096093540382
  endloop
endfacet
facet normal -0.7730104533627503 0.0 -0.6343932841636293
  outer loop
    vertex 69.90736612784204 4.300000000000001 0.7674228086995258
    vertex 70.03172895895803 -2.2999999999999985 0.6158862605325806
    vertex 69.90736612784204 -2.2999999999999985 0.7674228086995258
  endloop
endfacet
facet normal -0.7730104533627503 0.0 -0.6343932841636293
  outer loop
    vertex 70.03172895895803 -2.2999999999999985 0.6158862605325806
    vertex 69.90736612784204 4.300000000000001 0.7674228086995258
    vertex 70.03172895895803 4.300000000000001 0.6158862605325806
  endloop
endfacet
facet normal -0.4713967368259888 0.0 -0.8819212643483597
  outer loop
    vertex 70.3561523077795 4.300000000000001 0.3991135092078415
    vertex 70.18326550712499 -2.2999999999999985 0.491523429416583
    vertex 70.18326550712499 4.300000000000001 0.491523429416583
  endloop
endfacet
facet normal -0.4713967368259888 0.0 -0.8819212643483597
  outer loop
    vertex 70.18326550712499 -2.2999999999999985 0.491523429416583
    vertex 70.3561523077795 4.300000000000001 0.3991135092078415
    vertex 70.3561523077795 -2.2999999999999985 0.3991135092078415
  endloop
endfacet
facet normal -0.8819212643483404 0.0 -0.471396736826025
  outer loop
    vertex 69.81495620763329 4.300000000000001 0.9403096093540382
    vertex 69.90736612784204 -2.2999999999999985 0.7674228086995258
    vertex 69.81495620763329 -2.2999999999999985 0.9403096093540382
  endloop
endfacet
facet normal -0.8819212643483404 0.0 -0.471396736826025
  outer loop
    vertex 69.90736612784204 -2.2999999999999985 0.7674228086995258
    vertex 69.81495620763329 4.300000000000001 0.9403096093540382
    vertex 69.90736612784204 4.300000000000001 0.7674228086995258
  endloop
endfacet
facet normal -0.29028467725447477 0.0 -0.956940335732205
  outer loop
    vertex 70.54374541812845 4.300000000000001 0.34220776131589786
    vertex 70.3561523077795 -2.2999999999999985 0.3991135092078415
    vertex 70.3561523077795 4.300000000000001 0.3991135092078415
  endloop
endfacet
facet normal -0.29028467725447477 0.0 -0.956940335732205
  outer loop
    vertex 70.3561523077795 -2.2999999999999985 0.3991135092078415
    vertex 70.54374541812845 4.300000000000001 0.34220776131589786
    vertex 70.54374541812845 -2.2999999999999985 0.34220776131589786
  endloop
endfacet
facet normal -0.9951847266721994 0.0 -0.09801714032953683
  outer loop
    vertex 69.73883574014458 4.300000000000001 1.3229930417191282
    vertex 69.75805045974136 -2.2999999999999985 1.1279027197029998
    vertex 69.73883574014458 -2.2999999999999985 1.3229930417191282
  endloop
endfacet
facet normal -0.9951847266721994 0.0 -0.09801714032953683
  outer loop
    vertex 69.75805045974136 -2.2999999999999985 1.1279027197029998
    vertex 69.73883574014458 4.300000000000001 1.3229930417191282
    vertex 69.75805045974136 4.300000000000001 1.1279027197029998
  endloop
endfacet
facet normal -0.6343932841636396 0.0 -0.773010453362742
  outer loop
    vertex 70.18326550712499 4.300000000000001 0.491523429416583
    vertex 70.03172895895803 -2.2999999999999985 0.6158862605325806
    vertex 70.03172895895803 4.300000000000001 0.6158862605325806
  endloop
endfacet
facet normal -0.6343932841636396 0.0 -0.773010453362742
  outer loop
    vertex 70.03172895895803 -2.2999999999999985 0.6158862605325806
    vertex 70.18326550712499 4.300000000000001 0.491523429416583
    vertex 70.18326550712499 -2.2999999999999985 0.491523429416583
  endloop
endfacet
facet normal -0.09801714032955877 0.0 -0.9951847266721972
  outer loop
    vertex 70.73883574014458 4.300000000000001 0.32299304171912824
    vertex 70.54374541812845 -2.2999999999999985 0.34220776131589786
    vertex 70.54374541812845 4.300000000000001 0.34220776131589786
  endloop
endfacet
facet normal -0.09801714032955877 0.0 -0.9951847266721972
  outer loop
    vertex 70.54374541812845 -2.2999999999999985 0.34220776131589786
    vertex 70.73883574014458 4.300000000000001 0.32299304171912824
    vertex 70.73883574014458 -2.2999999999999985 0.32299304171912824
  endloop
endfacet
facet normal 0.6348617615565667 0.00029448051106290837 -0.7726256900948361
  outer loop
    vertex 78.35187038547645 -2.2999999999999985 -0.09122052065396706
    vertex 78.0496355766496 -3.299999999999999 -0.3399461828859622
    vertex 78.04929674357665 -2.2999999999999985 -0.3399461828859622
  endloop
endfacet
facet normal 0.6348617615565667 0.00029448051106290837 -0.7726256900948361
  outer loop
    vertex 78.0496355766496 -3.299999999999999 -0.3399461828859622
    vertex 78.35187038547645 -2.2999999999999985 -0.09122052065396706
    vertex 78.35245925203479 -3.299999999999999 -0.09122052065396706
  endloop
endfacet
facet normal 0.8824761536080772 0.0009338738243289937 -0.47035621202740996
  outer loop
    vertex 78.5999872170374 -2.2999999999999985 0.21185257567992352
    vertex 78.78535337252166 -3.299999999999999 0.5576261769889483
    vertex 78.60088075027919 -3.299999999999999 0.21185257567992352
  endloop
endfacet
facet normal 0.8824761536080772 0.0009338738243289937 -0.47035621202740996
  outer loop
    vertex 78.78535337252166 -3.299999999999999 0.5576261769889483
    vertex 78.5999872170374 -2.2999999999999985 0.21185257567992352
    vertex 78.7841122475681 -2.2999999999999985 0.5576261769889483
  endloop
endfacet
facet normal 0.8824761536080772 0.0009338738243289937 -0.47035621202740996
  outer loop
    vertex 78.7841122475681 -2.2999999999999985 0.5576261769889483
    vertex 78.5999872170374 -2.2999999999999985 0.21185257567992352
    vertex 78.66268014569759 -2.2999999999999985 0.32958539916930735
  endloop
endfacet
facet normal 0.7735814135100705 0.0005733784663923328 -0.6336966686900726
  outer loop
    vertex 78.35187038547645 -2.2999999999999985 -0.09122052065396706
    vertex 78.60088075027919 -3.299999999999999 0.21185257567992352
    vertex 78.35245925203479 -3.299999999999999 -0.09122052065396706
  endloop
endfacet
facet normal 0.7735814135100705 0.0005733784663923328 -0.6336966686900726
  outer loop
    vertex 78.60088075027919 -3.299999999999999 0.21185257567992352
    vertex 78.35187038547645 -2.2999999999999985 -0.09122052065396706
    vertex 78.5999872170374 -2.2999999999999985 0.21185257567992352
  endloop
endfacet
facet normal 0.9948242588858685 -0.000731749997126704 -0.10160786620200381
  outer loop
    vertex 78.89716965540383 -2.2999999999999985 0.9328123976868713
    vertex 78.93682522395466 -3.299999999999999 1.3229930417191282
    vertex 78.89878793934285 -3.299999999999999 0.9328123976868713
  endloop
endfacet
facet normal 0.9948242588858685 -0.000731749997126704 -0.10160786620200381
  outer loop
    vertex 78.93682522395466 -3.299999999999999 1.3229930417191282
    vertex 78.89716965540383 -2.2999999999999985 0.9328123976868713
    vertex 78.93883574014458 -2.2999999999999985 1.3229930417191282
  endloop
endfacet
facet normal 0.9948242588858685 -0.000731749997126704 -0.10160786620200381
  outer loop
    vertex 78.93883574014458 -2.2999999999999985 1.3229930417191282
    vertex 78.89716965540383 -2.2999999999999985 0.9328123976868713
    vertex 78.91962102054782 -2.2999999999999985 1.1279027197029998
  endloop
endfacet
facet normal 0.2904057730170373 2.783146373244091e-05 -0.9569035929621055
  outer loop
    vertex 77.70389402671094 -2.2999999999999985 -0.5247660233034451
    vertex 77.32897449908924 -3.299999999999999 -0.6385775190873324
    vertex 77.3289358675844 -2.2999999999999985 -0.6385775190873324
  endloop
endfacet
facet normal 0.2904057730170373 2.783146373244091e-05 -0.9569035929621055
  outer loop
    vertex 77.32897449908924 -3.299999999999999 -0.6385775190873324
    vertex 77.70389402671094 -2.2999999999999985 -0.5247660233034451
    vertex 77.70404706814321 -3.299999999999999 -0.5247660233034451
  endloop
endfacet
facet normal 0.47169163391105984 0.00011600654452543925 -0.8817635675399593
  outer loop
    vertex 78.04929674357665 -2.2999999999999985 -0.3399461828859622
    vertex 77.70404706814321 -3.299999999999999 -0.5247660233034451
    vertex 77.70389402671094 -2.2999999999999985 -0.5247660233034451
  endloop
endfacet
facet normal 0.47169163391105984 0.00011600654452543925 -0.8817635675399593
  outer loop
    vertex 77.70404706814321 -3.299999999999999 -0.5247660233034451
    vertex 78.04929674357665 -2.2999999999999985 -0.3399461828859622
    vertex 78.0496355766496 -3.299999999999999 -0.3399461828859622
  endloop
endfacet
facet normal 0.9573393634329087 0.0013687123445052408 -0.2889627482018944
  outer loop
    vertex 78.7841122475681 -2.2999999999999985 0.5576261769889483
    vertex 78.89878793934285 -3.299999999999999 0.9328123976868713
    vertex 78.78535337252166 -3.299999999999999 0.5576261769889483
  endloop
endfacet
facet normal 0.9573393634329087 0.0013687123445052408 -0.2889627482018944
  outer loop
    vertex 78.89878793934285 -3.299999999999999 0.9328123976868713
    vertex 78.7841122475681 -2.2999999999999985 0.5576261769889483
    vertex 78.89716965540383 -2.2999999999999985 0.9328123976868713
  endloop
endfacet
facet normal 0.09803136300344083 1.8935495366273283e-06 -0.9951833257566679
  outer loop
    vertex 77.3289358675844 -2.2999999999999985 -0.6385775190873324
    vertex 76.93883169797333 -3.299999999999999 -0.6770069582808717
    vertex 76.93883169797333 -2.2999999999999985 -0.6770069582808717
  endloop
endfacet
facet normal 0.09803136300344083 1.8935495366273283e-06 -0.9951833257566679
  outer loop
    vertex 76.93883169797333 -3.299999999999999 -0.6770069582808717
    vertex 77.3289358675844 -2.2999999999999985 -0.6385775190873324
    vertex 77.32897449908924 -3.299999999999999 -0.6385775190873324
  endloop
endfacet
facet normal 0.7735027341298238 -0.0004942381322275232 -0.6337927705664964
  outer loop
    vertex 78.35254078256317 5.3 -0.09122052065396688
    vertex 78.60023389446009 4.300000000000001 0.21185257567992372
    vertex 78.35203314244566 4.300000000000001 -0.09122052065396688
  endloop
endfacet
facet normal 0.7735027341298238 -0.0004942381322275232 -0.6337927705664964
  outer loop
    vertex 78.60023389446009 4.300000000000001 0.21185257567992372
    vertex 78.35254078256317 5.3 -0.09122052065396688
    vertex 78.60100417647632 5.3 0.21185257567992372
  endloop
endfacet
facet normal 0.9572845375237393 -0.0011798488031825982 -0.289145157619425
  outer loop
    vertex 78.785524648508 5.3 0.5576261769889486
    vertex 78.8976161175656 4.300000000000001 0.9328123976868716
    vertex 78.78445472051104 4.300000000000001 0.5576261769889486
  endloop
endfacet
facet normal 0.9572845375237393 -0.0011798488031825982 -0.289145157619425
  outer loop
    vertex 78.8976161175656 4.300000000000001 0.9328123976868716
    vertex 78.785524648508 5.3 0.5576261769889486
    vertex 78.89901118039828 5.3 0.9328123976868716
  endloop
endfacet
facet normal 0.09802942429141588 -1.632326858881776e-06 -0.9951835167296679
  outer loop
    vertex 77.32898066347329 5.3 -0.6385775190873324
    vertex 76.93883273619312 4.300000000000001 -0.6770069582808717
    vertex 76.93883273619312 5.3 -0.6770069582808717
  endloop
endfacet
facet normal 0.09802942429141588 -1.632326858881776e-06 -0.9951835167296679
  outer loop
    vertex 76.93883273619312 4.300000000000001 -0.6770069582808717
    vertex 77.32898066347329 5.3 -0.6385775190873324
    vertex 77.32894736067934 4.300000000000001 -0.6385775190873324
  endloop
endfacet
facet normal 0.2903891283881601 -2.399110214541213e-05 -0.9569086443012162
  outer loop
    vertex 77.32898066347329 5.3 -0.6385775190873324
    vertex 77.70393688774959 4.300000000000001 -0.5247660233034451
    vertex 77.32894736067934 4.300000000000001 -0.6385775190873324
  endloop
endfacet
facet normal 0.2903891283881601 -2.399110214541213e-05 -0.9569086443012162
  outer loop
    vertex 77.70393688774959 4.300000000000001 -0.5247660233034451
    vertex 77.32898066347329 5.3 -0.6385775190873324
    vertex 77.70406881911767 5.3 -0.5247660233034451
  endloop
endfacet
facet normal 0.6347972161201733 -0.0002538349659783559 -0.772678736587133
  outer loop
    vertex 78.04968277565672 5.3 -0.3399461828859622
    vertex 78.35203314244566 4.300000000000001 -0.09122052065396688
    vertex 78.0493906801751 4.300000000000001 -0.3399461828859622
  endloop
endfacet
facet normal 0.6347972161201733 -0.0002538349659783559 -0.772678736587133
  outer loop
    vertex 78.35203314244566 4.300000000000001 -0.09122052065396688
    vertex 78.04968277565672 5.3 -0.3399461828859622
    vertex 78.35254078256317 5.3 -0.09122052065396688
  endloop
endfacet
facet normal 0.8823997388254323 -0.0008049876343713796 -0.47049979055863284
  outer loop
    vertex 78.60100417647632 5.3 0.21185257567992372
    vertex 78.66295593305495 4.300000000000001 0.32957881560237473
    vertex 78.60023389446009 4.300000000000001 0.21185257567992372
  endloop
endfacet
facet normal 0.8823997388254323 -0.0008049876343713796 -0.47049979055863284
  outer loop
    vertex 78.66295593305495 4.300000000000001 0.32957881560237473
    vertex 78.60100417647632 5.3 0.21185257567992372
    vertex 78.78445472051104 4.300000000000001 0.5576261769889486
  endloop
endfacet
facet normal 0.8823997388254323 -0.0008049876343713796 -0.47049979055863284
  outer loop
    vertex 78.78445472051104 4.300000000000001 0.5576261769889486
    vertex 78.60100417647632 5.3 0.21185257567992372
    vertex 78.785524648508 5.3 0.5576261769889486
  endloop
endfacet
facet normal 0.4716510296456559 -9.99963501294356e-05 -0.8817852891917185
  outer loop
    vertex 77.70406881911767 5.3 -0.5247660233034451
    vertex 78.0493906801751 4.300000000000001 -0.3399461828859622
    vertex 77.70393688774959 4.300000000000001 -0.5247660233034451
  endloop
endfacet
facet normal 0.4716510296456559 -9.99963501294356e-05 -0.8817852891917185
  outer loop
    vertex 78.0493906801751 4.300000000000001 -0.3399461828859622
    vertex 77.70406881911767 5.3 -0.5247660233034451
    vertex 78.04968277565672 5.3 -0.3399461828859622
  endloop
endfacet
facet normal 0.9948747693399319 0.0006308451515810442 -0.10111278536966516
  outer loop
    vertex 78.89901118039828 5.3 0.9328123976868716
    vertex 78.91962102054782 4.300000000000001 1.1279027197029998
    vertex 78.8976161175656 4.300000000000001 0.9328123976868716
  endloop
endfacet
facet normal 0.9948747693399319 0.0006308451515810442 -0.10111278536966516
  outer loop
    vertex 78.91962102054782 4.300000000000001 1.1279027197029998
    vertex 78.89901118039828 5.3 0.9328123976868716
    vertex 78.93883574014458 4.300000000000001 1.3229930417191282
  endloop
endfacet
facet normal 0.9948747693399319 0.0006308451515810442 -0.10111278536966516
  outer loop
    vertex 78.93883574014458 4.300000000000001 1.3229930417191282
    vertex 78.89901118039828 5.3 0.9328123976868716
    vertex 78.9371025483706 5.3 1.3229930417191282
  endloop
endfacet
facet normal 0.0 0.0 -1.0
  outer loop
    vertex 76.93883169797333 -2.2999999999999985 -0.6770069582808717
    vertex 71.73883978231585 -3.299999999999999 -0.6770069582808717
    vertex 71.73883978231585 -2.2999999999999985 -0.6770069582808717
  endloop
endfacet
facet normal 0.0 0.0 -1.0
  outer loop
    vertex 71.73883978231585 -3.299999999999999 -0.6770069582808717
    vertex 76.93883169797333 -2.2999999999999985 -0.6770069582808717
    vertex 76.93883169797333 -3.299999999999999 -0.6770069582808717
  endloop
endfacet
facet normal -0.6348617615565667 0.00029448051106290837 -0.772625690094836
  outer loop
    vertex 70.32580109481273 -2.2999999999999985 -0.09122052065396706
    vertex 70.62803590363957 -3.299999999999999 -0.3399461828859622
    vertex 70.32521222825439 -3.299999999999999 -0.09122052065396706
  endloop
endfacet
facet normal -0.6348617615565667 0.00029448051106290837 -0.772625690094836
  outer loop
    vertex 70.62803590363957 -3.299999999999999 -0.3399461828859622
    vertex 70.32580109481273 -2.2999999999999985 -0.09122052065396706
    vertex 70.62837473671253 -2.2999999999999985 -0.3399461828859622
  endloop
endfacet
facet normal -0.7735814135100706 0.0005733784663923329 -0.6336966686900726
  outer loop
    vertex 70.07768426325178 -2.2999999999999985 0.21185257567992352
    vertex 70.32521222825439 -3.299999999999999 -0.09122052065396706
    vertex 70.07679073000999 -3.299999999999999 0.21185257567992352
  endloop
endfacet
facet normal -0.7735814135100706 0.0005733784663923329 -0.6336966686900726
  outer loop
    vertex 70.32521222825439 -3.299999999999999 -0.09122052065396706
    vertex 70.07768426325178 -2.2999999999999985 0.21185257567992352
    vertex 70.32580109481273 -2.2999999999999985 -0.09122052065396706
  endloop
endfacet
facet normal -0.9948242588858685 -0.0007317499971267034 -0.10160786620200381
  outer loop
    vertex 69.73883574014458 -2.2999999999999985 1.3229930417191282
    vertex 69.77888354094632 -3.299999999999999 0.9328123976868713
    vertex 69.74084625633452 -3.299999999999999 1.3229930417191282
  endloop
endfacet
facet normal -0.9948242588858685 -0.0007317499971267034 -0.10160786620200381
  outer loop
    vertex 69.77888354094632 -3.299999999999999 0.9328123976868713
    vertex 69.73883574014458 -2.2999999999999985 1.3229930417191282
    vertex 69.78050182488535 -2.2999999999999985 0.9328123976868713
  endloop
endfacet
facet normal -0.9948242588858685 -0.0007317499971267034 -0.10160786620200381
  outer loop
    vertex 69.78050182488535 -2.2999999999999985 0.9328123976868713
    vertex 69.73883574014458 -2.2999999999999985 1.3229930417191282
    vertex 69.75805045974136 -2.2999999999999985 1.1279027197029998
  endloop
endfacet
facet normal -0.2904057730170373 2.783146373244091e-05 -0.9569035929621055
  outer loop
    vertex 70.97377745357824 -2.2999999999999985 -0.5247660233034451
    vertex 71.34869698119994 -3.299999999999999 -0.6385775190873324
    vertex 70.97362441214597 -3.299999999999999 -0.5247660233034451
  endloop
endfacet
facet normal -0.2904057730170373 2.783146373244091e-05 -0.9569035929621055
  outer loop
    vertex 71.34869698119994 -3.299999999999999 -0.6385775190873324
    vertex 70.97377745357824 -2.2999999999999985 -0.5247660233034451
    vertex 71.34873561270476 -2.2999999999999985 -0.6385775190873324
  endloop
endfacet
facet normal -0.09803136300344086 1.8935495366290432e-06 -0.9951833257566679
  outer loop
    vertex 71.34873561270476 -2.2999999999999985 -0.6385775190873324
    vertex 71.73883978231585 -3.299999999999999 -0.6770069582808717
    vertex 71.34869698119994 -3.299999999999999 -0.6385775190873324
  endloop
endfacet
facet normal -0.09803136300344086 1.8935495366290432e-06 -0.9951833257566679
  outer loop
    vertex 71.73883978231585 -3.299999999999999 -0.6770069582808717
    vertex 71.34873561270476 -2.2999999999999985 -0.6385775190873324
    vertex 71.73883978231585 -2.2999999999999985 -0.6770069582808717
  endloop
endfacet
facet normal -0.9573393634329087 0.0013687123445052366 -0.28896274820189444
  outer loop
    vertex 69.78050182488535 -2.2999999999999985 0.9328123976868713
    vertex 69.89231810776752 -3.299999999999999 0.5576261769889483
    vertex 69.77888354094632 -3.299999999999999 0.9328123976868713
  endloop
endfacet
facet normal -0.9573393634329087 0.0013687123445052366 -0.28896274820189444
  outer loop
    vertex 69.89231810776752 -3.299999999999999 0.5576261769889483
    vertex 69.78050182488535 -2.2999999999999985 0.9328123976868713
    vertex 69.89355923272106 -2.2999999999999985 0.5576261769889483
  endloop
endfacet
facet normal -0.47169163391105984 0.00011600654452543925 -0.8817635675399593
  outer loop
    vertex 70.62837473671253 -2.2999999999999985 -0.3399461828859622
    vertex 70.97362441214597 -3.299999999999999 -0.5247660233034451
    vertex 70.62803590363957 -3.299999999999999 -0.3399461828859622
  endloop
endfacet
facet normal -0.47169163391105984 0.00011600654452543925 -0.8817635675399593
  outer loop
    vertex 70.97362441214597 -3.299999999999999 -0.5247660233034451
    vertex 70.62837473671253 -2.2999999999999985 -0.3399461828859622
    vertex 70.97377745357824 -2.2999999999999985 -0.5247660233034451
  endloop
endfacet
facet normal -0.8824761536080772 0.0009338738243289957 -0.47035621202740985
  outer loop
    vertex 69.89355923272106 -2.2999999999999985 0.5576261769889483
    vertex 70.07679073000999 -3.299999999999999 0.21185257567992352
    vertex 69.89231810776752 -3.299999999999999 0.5576261769889483
  endloop
endfacet
facet normal -0.8824761536080772 0.0009338738243289957 -0.47035621202740985
  outer loop
    vertex 70.07679073000999 -3.299999999999999 0.21185257567992352
    vertex 69.89355923272106 -2.2999999999999985 0.5576261769889483
    vertex 70.07768426325178 -2.2999999999999985 0.21185257567992352
  endloop
endfacet
facet normal -0.8824761536080772 0.0009338738243289957 -0.47035621202740985
  outer loop
    vertex 70.07768426325178 -2.2999999999999985 0.21185257567992352
    vertex 69.89355923272106 -2.2999999999999985 0.5576261769889483
    vertex 70.01499133459157 -2.2999999999999985 0.32958539916930735
  endloop
endfacet
facet normal 0.0 -1.0 0.0
  outer loop
    vertex 77.32897449908924 -3.299999999999999 -0.6385775190873324
    vertex 71.73883978231585 -3.299999999999999 -0.6770069582808717
    vertex 76.93883169797333 -3.299999999999999 -0.6770069582808717
  endloop
endfacet
facet normal 0.0 -1.0 0.0
  outer loop
    vertex 71.73883978231585 -3.299999999999999 -0.6770069582808717
    vertex 77.32897449908924 -3.299999999999999 -0.6385775190873324
    vertex 71.34869698119994 -3.299999999999999 -0.6385775190873324
  endloop
endfacet
facet normal 0.0 -1.0 0.0
  outer loop
    vertex 71.34869698119994 -3.299999999999999 -0.6385775190873324
    vertex 77.32897449908924 -3.299999999999999 -0.6385775190873324
    vertex 77.70404706814321 -3.299999999999999 -0.5247660233034451
  endloop
endfacet
facet normal 0.0 -1.0 0.0
  outer loop
    vertex 71.34869698119994 -3.299999999999999 -0.6385775190873324
    vertex 77.70404706814321 -3.299999999999999 -0.5247660233034451
    vertex 70.97362441214597 -3.299999999999999 -0.5247660233034451
  endloop
endfacet
facet normal 0.0 -1.0 0.0
  outer loop
    vertex 70.97362441214597 -3.299999999999999 -0.5247660233034451
    vertex 77.70404706814321 -3.299999999999999 -0.5247660233034451
    vertex 78.0496355766496 -3.299999999999999 -0.3399461828859622
  endloop
endfacet
facet normal 0.0 -1.0 0.0
  outer loop
    vertex 70.97362441214597 -3.299999999999999 -0.5247660233034451
    vertex 78.0496355766496 -3.299999999999999 -0.3399461828859622
    vertex 70.62803590363957 -3.299999999999999 -0.3399461828859622
  endloop
endfacet
facet normal 0.0 -1.0 0.0
  outer loop
    vertex 70.62803590363957 -3.299999999999999 -0.3399461828859622
    vertex 78.0496355766496 -3.299999999999999 -0.3399461828859622
    vertex 78.35245925203479 -3.299999999999999 -0.09122052065396706
  endloop
endfacet
facet normal 0.0 -1.0 0.0
  outer loop
    vertex 70.62803590363957 -3.299999999999999 -0.3399461828859622
    vertex 78.35245925203479 -3.299999999999999 -0.09122052065396706
    vertex 70.32521222825439 -3.299999999999999 -0.09122052065396706
  endloop
endfacet
facet normal 0.0 -1.0 0.0
  outer loop
    vertex 70.32521222825439 -3.299999999999999 -0.09122052065396706
    vertex 78.35245925203479 -3.299999999999999 -0.09122052065396706
    vertex 78.60088075027919 -3.299999999999999 0.21185257567992352
  endloop
endfacet
facet normal 0.0 -1.0 0.0
  outer loop
    vertex 70.32521222825439 -3.299999999999999 -0.09122052065396706
    vertex 78.60088075027919 -3.299999999999999 0.21185257567992352
    vertex 70.07679073000999 -3.299999999999999 0.21185257567992352
  endloop
endfacet
facet normal 0.0 -1.0 0.0
  outer loop
    vertex 70.07679073000999 -3.299999999999999 0.21185257567992352
    vertex 78.60088075027919 -3.299999999999999 0.21185257567992352
    vertex 78.78535337252166 -3.299999999999999 0.5576261769889483
  endloop
endfacet
facet normal 0.0 -1.0 0.0
  outer loop
    vertex 70.07679073000999 -3.299999999999999 0.21185257567992352
    vertex 78.78535337252166 -3.299999999999999 0.5576261769889483
    vertex 69.89231810776752 -3.299999999999999 0.5576261769889483
  endloop
endfacet
facet normal 0.0 -1.0 0.0
  outer loop
    vertex 69.89231810776752 -3.299999999999999 0.5576261769889483
    vertex 78.78535337252166 -3.299999999999999 0.5576261769889483
    vertex 78.89878793934285 -3.299999999999999 0.9328123976868713
  endloop
endfacet
facet normal 0.0 -1.0 0.0
  outer loop
    vertex 69.89231810776752 -3.299999999999999 0.5576261769889483
    vertex 78.89878793934285 -3.299999999999999 0.9328123976868713
    vertex 69.77888354094632 -3.299999999999999 0.9328123976868713
  endloop
endfacet
facet normal 0.0 -1.0 0.0
  outer loop
    vertex 69.77888354094632 -3.299999999999999 0.9328123976868713
    vertex 78.89878793934285 -3.299999999999999 0.9328123976868713
    vertex 78.93682522395466 -3.299999999999999 1.3229930417191282
  endloop
endfacet
facet normal 0.0 -1.0 0.0
  outer loop
    vertex 69.77888354094632 -3.299999999999999 0.9328123976868713
    vertex 78.93682522395466 -3.299999999999999 1.3229930417191282
    vertex 69.74084625633452 -3.299999999999999 1.3229930417191282
  endloop
endfacet
facet normal 0.0 -1.0 0.0
  outer loop
    vertex 69.74084625633452 -3.299999999999999 1.3229930417191282
    vertex 78.93682522395466 -3.299999999999999 1.3229930417191282
    vertex 78.93883574014458 -3.299999999999999 1.8229930417191267
  endloop
endfacet
facet normal 0.0 -1.0 0.0
  outer loop
    vertex 69.74084625633452 -3.299999999999999 1.3229930417191282
    vertex 78.93883574014458 -3.299999999999999 1.8229930417191267
    vertex 69.73883574014458 -3.299999999999999 1.8229930417191267
  endloop
endfacet
facet normal 7.108373501312661e-50 1.0 6.153890580367631e-32
  outer loop
    vertex 71.34873561270476 -2.2999999999999985 -0.6385775190873324
    vertex 76.93883169797333 -2.2999999999999985 -0.6770069582808717
    vertex 71.73883978231585 -2.2999999999999985 -0.6770069582808717
  endloop
endfacet
facet normal 7.108373501312661e-50 1.0 6.153890580367631e-32
  outer loop
    vertex 76.93883169797333 -2.2999999999999985 -0.6770069582808717
    vertex 71.34873561270476 -2.2999999999999985 -0.6385775190873324
    vertex 77.3289358675844 -2.2999999999999985 -0.6385775190873324
  endloop
endfacet
facet normal 7.108373501312661e-50 1.0 6.153890580367631e-32
  outer loop
    vertex 77.3289358675844 -2.2999999999999985 -0.6385775190873324
    vertex 71.34873561270476 -2.2999999999999985 -0.6385775190873324
    vertex 70.97377745357824 -2.2999999999999985 -0.5247660233034451
  endloop
endfacet
facet normal 7.108373501312661e-50 1.0 6.153890580367631e-32
  outer loop
    vertex 77.3289358675844 -2.2999999999999985 -0.6385775190873324
    vertex 70.97377745357824 -2.2999999999999985 -0.5247660233034451
    vertex 77.70389402671094 -2.2999999999999985 -0.5247660233034451
  endloop
endfacet
facet normal 7.108373501312661e-50 1.0 6.153890580367631e-32
  outer loop
    vertex 77.70389402671094 -2.2999999999999985 -0.5247660233034451
    vertex 70.97377745357824 -2.2999999999999985 -0.5247660233034451
    vertex 70.62837473671253 -2.2999999999999985 -0.3399461828859622
  endloop
endfacet
facet normal 7.108373501312661e-50 1.0 6.153890580367631e-32
  outer loop
    vertex 77.70389402671094 -2.2999999999999985 -0.5247660233034451
    vertex 70.62837473671253 -2.2999999999999985 -0.3399461828859622
    vertex 78.04929674357665 -2.2999999999999985 -0.3399461828859622
  endloop
endfacet
facet normal 7.108373501312661e-50 1.0 6.153890580367631e-32
  outer loop
    vertex 78.04929674357665 -2.2999999999999985 -0.3399461828859622
    vertex 70.62837473671253 -2.2999999999999985 -0.3399461828859622
    vertex 70.32580109481273 -2.2999999999999985 -0.09122052065396706
  endloop
endfacet
facet normal 7.108373501312661e-50 1.0 6.153890580367631e-32
  outer loop
    vertex 78.04929674357665 -2.2999999999999985 -0.3399461828859622
    vertex 70.32580109481273 -2.2999999999999985 -0.09122052065396706
    vertex 78.35187038547645 -2.2999999999999985 -0.09122052065396706
  endloop
endfacet
facet normal 7.108373501312661e-50 1.0 6.153890580367631e-32
  outer loop
    vertex 78.35187038547645 -2.2999999999999985 -0.09122052065396706
    vertex 70.32580109481273 -2.2999999999999985 -0.09122052065396706
    vertex 70.07768426325178 -2.2999999999999985 0.21185257567992352
  endloop
endfacet
facet normal 7.108373501312661e-50 1.0 6.153890580367631e-32
  outer loop
    vertex 78.35187038547645 -2.2999999999999985 -0.09122052065396706
    vertex 70.07768426325178 -2.2999999999999985 0.21185257567992352
    vertex 78.5999872170374 -2.2999999999999985 0.21185257567992352
  endloop
endfacet
facet normal 7.108373501312661e-50 1.0 6.153890580367631e-32
  outer loop
    vertex 78.5999872170374 -2.2999999999999985 0.21185257567992352
    vertex 70.07768426325178 -2.2999999999999985 0.21185257567992352
    vertex 70.01499133459157 -2.2999999999999985 0.32958539916930735
  endloop
endfacet
facet normal 7.108373501312661e-50 1.0 6.153890580367631e-32
  outer loop
    vertex 78.5999872170374 -2.2999999999999985 0.21185257567992352
    vertex 70.01499133459157 -2.2999999999999985 0.32958539916930735
    vertex 70.73883574014458 -2.2999999999999985 0.32299304171912824
  endloop
endfacet
facet normal 7.108373501312661e-50 1.0 6.153890580367631e-32
  outer loop
    vertex 70.73883574014458 -2.2999999999999985 0.32299304171912824
    vertex 70.01499133459157 -2.2999999999999985 0.32958539916930735
    vertex 70.54374541812845 -2.2999999999999985 0.34220776131589786
  endloop
endfacet
facet normal 7.108373501312661e-50 1.0 6.153890580367631e-32
  outer loop
    vertex 78.5999872170374 -2.2999999999999985 0.21185257567992352
    vertex 77.9388357401446 -2.2999999999999985 0.32299304171912824
    vertex 78.66268014569759 -2.2999999999999985 0.32958539916930735
  endloop
endfacet
facet normal 7.108373501312661e-50 1.0 6.153890580367631e-32
  outer loop
    vertex 77.9388357401446 -2.2999999999999985 0.32299304171912824
    vertex 78.5999872170374 -2.2999999999999985 0.21185257567992352
    vertex 70.73883574014458 -2.2999999999999985 0.32299304171912824
  endloop
endfacet
facet normal 7.108373501312661e-50 1.0 6.153890580367631e-32
  outer loop
    vertex 78.66268014569759 -2.2999999999999985 0.32958539916930735
    vertex 77.9388357401446 -2.2999999999999985 0.32299304171912824
    vertex 78.13392606216073 -2.2999999999999985 0.34220776131589786
  endloop
endfacet
facet normal 0.0 0.0 -1.0
  outer loop
    vertex 76.93883273619312 5.3 -0.6770069582808717
    vertex 71.73883874409606 4.300000000000001 -0.6770069582808717
    vertex 71.73883874409606 5.3 -0.6770069582808717
  endloop
endfacet
facet normal 0.0 0.0 -1.0
  outer loop
    vertex 71.73883874409606 4.300000000000001 -0.6770069582808717
    vertex 76.93883273619312 5.3 -0.6770069582808717
    vertex 76.93883273619312 4.300000000000001 -0.6770069582808717
  endloop
endfacet
facet normal -0.29038912838816006 -2.399110214541721e-05 -0.9569086443012165
  outer loop
    vertex 71.34869081681589 5.3 -0.6385775190873324
    vertex 70.97373459253959 4.300000000000001 -0.5247660233034451
    vertex 70.9736026611715 5.3 -0.5247660233034451
  endloop
endfacet
facet normal -0.29038912838816006 -2.399110214541721e-05 -0.9569086443012165
  outer loop
    vertex 70.97373459253959 4.300000000000001 -0.5247660233034451
    vertex 71.34869081681589 5.3 -0.6385775190873324
    vertex 71.34872411960983 4.300000000000001 -0.6385775190873324
  endloop
endfacet
facet normal -0.9948747693399319 0.0006308451515810449 -0.10111278536966514
  outer loop
    vertex 69.74056893191857 5.3 1.3229930417191282
    vertex 69.75805045974136 4.300000000000001 1.1279027197029998
    vertex 69.73883574014458 4.300000000000001 1.3229930417191282
  endloop
endfacet
facet normal -0.9948747693399319 0.0006308451515810449 -0.10111278536966514
  outer loop
    vertex 69.75805045974136 4.300000000000001 1.1279027197029998
    vertex 69.74056893191857 5.3 1.3229930417191282
    vertex 69.78005536272357 4.300000000000001 0.9328123976868716
  endloop
endfacet
facet normal -0.9948747693399319 0.0006308451515810449 -0.10111278536966514
  outer loop
    vertex 69.78005536272357 4.300000000000001 0.9328123976868716
    vertex 69.74056893191857 5.3 1.3229930417191282
    vertex 69.77866029989089 5.3 0.9328123976868716
  endloop
endfacet
facet normal -0.4716510296456558 -9.999635012944385e-05 -0.8817852891917187
  outer loop
    vertex 70.9736026611715 5.3 -0.5247660233034451
    vertex 70.62828080011408 4.300000000000001 -0.3399461828859622
    vertex 70.62798870463246 5.3 -0.3399461828859622
  endloop
endfacet
facet normal -0.4716510296456558 -9.999635012944385e-05 -0.8817852891917187
  outer loop
    vertex 70.62828080011408 4.300000000000001 -0.3399461828859622
    vertex 70.9736026611715 5.3 -0.5247660233034451
    vertex 70.97373459253959 4.300000000000001 -0.5247660233034451
  endloop
endfacet
facet normal -0.09802942429141588 -1.6323268588800618e-06 -0.9951835167296679
  outer loop
    vertex 71.73883874409606 5.3 -0.6770069582808717
    vertex 71.34872411960983 4.300000000000001 -0.6385775190873324
    vertex 71.34869081681589 5.3 -0.6385775190873324
  endloop
endfacet
facet normal -0.09802942429141588 -1.6323268588800618e-06 -0.9951835167296679
  outer loop
    vertex 71.34872411960983 4.300000000000001 -0.6385775190873324
    vertex 71.73883874409606 5.3 -0.6770069582808717
    vertex 71.73883874409606 4.300000000000001 -0.6770069582808717
  endloop
endfacet
facet normal -0.9572845375237393 -0.0011798488031825982 -0.28914515761942494
  outer loop
    vertex 69.77866029989089 5.3 0.9328123976868716
    vertex 69.89321675977814 4.300000000000001 0.5576261769889486
    vertex 69.78005536272357 4.300000000000001 0.9328123976868716
  endloop
endfacet
facet normal -0.9572845375237393 -0.0011798488031825982 -0.28914515761942494
  outer loop
    vertex 69.89321675977814 4.300000000000001 0.5576261769889486
    vertex 69.77866029989089 5.3 0.9328123976868716
    vertex 69.89214683178116 5.3 0.5576261769889486
  endloop
endfacet
facet normal -0.6347972161201733 -0.0002538349659783559 -0.772678736587133
  outer loop
    vertex 70.62798870463246 5.3 -0.3399461828859622
    vertex 70.32563833784351 4.300000000000001 -0.09122052065396688
    vertex 70.32513069772601 5.3 -0.09122052065396688
  endloop
endfacet
facet normal -0.6347972161201733 -0.0002538349659783559 -0.772678736587133
  outer loop
    vertex 70.32563833784351 4.300000000000001 -0.09122052065396688
    vertex 70.62798870463246 5.3 -0.3399461828859622
    vertex 70.62828080011408 4.300000000000001 -0.3399461828859622
  endloop
endfacet
facet normal -0.7735027341298238 -0.0004942381322275232 -0.6337927705664964
  outer loop
    vertex 70.07666730381284 5.3 0.21185257567992372
    vertex 70.32563833784351 4.300000000000001 -0.09122052065396688
    vertex 70.07743758582909 4.300000000000001 0.21185257567992372
  endloop
endfacet
facet normal -0.7735027341298238 -0.0004942381322275232 -0.6337927705664964
  outer loop
    vertex 70.32563833784351 4.300000000000001 -0.09122052065396688
    vertex 70.07666730381284 5.3 0.21185257567992372
    vertex 70.32513069772601 5.3 -0.09122052065396688
  endloop
endfacet
facet normal -0.8823997388254323 -0.0008049876343713735 -0.47049979055863284
  outer loop
    vertex 69.89214683178116 5.3 0.5576261769889486
    vertex 70.01471554723423 4.300000000000001 0.32957881560237473
    vertex 69.89321675977814 4.300000000000001 0.5576261769889486
  endloop
endfacet
facet normal -0.8823997388254323 -0.0008049876343713735 -0.47049979055863284
  outer loop
    vertex 70.01471554723423 4.300000000000001 0.32957881560237473
    vertex 69.89214683178116 5.3 0.5576261769889486
    vertex 70.07743758582909 4.300000000000001 0.21185257567992372
  endloop
endfacet
facet normal -0.8823997388254323 -0.0008049876343713735 -0.47049979055863284
  outer loop
    vertex 70.07743758582909 4.300000000000001 0.21185257567992372
    vertex 69.89214683178116 5.3 0.5576261769889486
    vertex 70.07666730381284 5.3 0.21185257567992372
  endloop
endfacet
facet normal 0.0 -1.0 0.0
  outer loop
    vertex 77.32894736067934 4.300000000000001 -0.6385775190873324
    vertex 71.73883874409606 4.300000000000001 -0.6770069582808717
    vertex 76.93883273619312 4.300000000000001 -0.6770069582808717
  endloop
endfacet
facet normal 0.0 -1.0 0.0
  outer loop
    vertex 71.73883874409606 4.300000000000001 -0.6770069582808717
    vertex 77.32894736067934 4.300000000000001 -0.6385775190873324
    vertex 71.34872411960983 4.300000000000001 -0.6385775190873324
  endloop
endfacet
facet normal 0.0 -1.0 0.0
  outer loop
    vertex 71.34872411960983 4.300000000000001 -0.6385775190873324
    vertex 77.32894736067934 4.300000000000001 -0.6385775190873324
    vertex 77.70393688774959 4.300000000000001 -0.5247660233034451
  endloop
endfacet
facet normal 0.0 -1.0 0.0
  outer loop
    vertex 71.34872411960983 4.300000000000001 -0.6385775190873324
    vertex 77.70393688774959 4.300000000000001 -0.5247660233034451
    vertex 70.97373459253959 4.300000000000001 -0.5247660233034451
  endloop
endfacet
facet normal 0.0 -1.0 0.0
  outer loop
    vertex 70.97373459253959 4.300000000000001 -0.5247660233034451
    vertex 77.70393688774959 4.300000000000001 -0.5247660233034451
    vertex 78.0493906801751 4.300000000000001 -0.3399461828859622
  endloop
endfacet
facet normal 0.0 -1.0 0.0
  outer loop
    vertex 70.97373459253959 4.300000000000001 -0.5247660233034451
    vertex 78.0493906801751 4.300000000000001 -0.3399461828859622
    vertex 70.62828080011408 4.300000000000001 -0.3399461828859622
  endloop
endfacet
facet normal 0.0 -1.0 0.0
  outer loop
    vertex 70.62828080011408 4.300000000000001 -0.3399461828859622
    vertex 78.0493906801751 4.300000000000001 -0.3399461828859622
    vertex 78.35203314244566 4.300000000000001 -0.09122052065396688
  endloop
endfacet
facet normal 0.0 -1.0 0.0
  outer loop
    vertex 70.62828080011408 4.300000000000001 -0.3399461828859622
    vertex 78.35203314244566 4.300000000000001 -0.09122052065396688
    vertex 70.32563833784351 4.300000000000001 -0.09122052065396688
  endloop
endfacet
facet normal 0.0 -1.0 0.0
  outer loop
    vertex 70.32563833784351 4.300000000000001 -0.09122052065396688
    vertex 78.35203314244566 4.300000000000001 -0.09122052065396688
    vertex 78.60023389446009 4.300000000000001 0.21185257567992372
  endloop
endfacet
facet normal 0.0 -1.0 0.0
  outer loop
    vertex 70.32563833784351 4.300000000000001 -0.09122052065396688
    vertex 78.60023389446009 4.300000000000001 0.21185257567992372
    vertex 70.07743758582909 4.300000000000001 0.21185257567992372
  endloop
endfacet
facet normal 0.0 -1.0 0.0
  outer loop
    vertex 70.07743758582909 4.300000000000001 0.21185257567992372
    vertex 78.60023389446009 4.300000000000001 0.21185257567992372
    vertex 78.66295593305495 4.300000000000001 0.32957881560237473
  endloop
endfacet
facet normal 0.0 -1.0 0.0
  outer loop
    vertex 70.07743758582909 4.300000000000001 0.21185257567992372
    vertex 78.66295593305495 4.300000000000001 0.32957881560237473
    vertex 77.9388357401446 4.300000000000001 0.32299304171912824
  endloop
endfacet
facet normal 0.0 -1.0 0.0
  outer loop
    vertex 77.9388357401446 4.300000000000001 0.32299304171912824
    vertex 78.66295593305495 4.300000000000001 0.32957881560237473
    vertex 78.13392606216073 4.300000000000001 0.34220776131589786
  endloop
endfacet
facet normal 0.0 -1.0 0.0
  outer loop
    vertex 70.07743758582909 4.300000000000001 0.21185257567992372
    vertex 70.73883574014458 4.300000000000001 0.32299304171912824
    vertex 70.01471554723423 4.300000000000001 0.32957881560237473
  endloop
endfacet
facet normal 0.0 -1.0 0.0
  outer loop
    vertex 70.73883574014458 4.300000000000001 0.32299304171912824
    vertex 70.07743758582909 4.300000000000001 0.21185257567992372
    vertex 77.9388357401446 4.300000000000001 0.32299304171912824
  endloop
endfacet
facet normal 0.0 -1.0 0.0
  outer loop
    vertex 70.01471554723423 4.300000000000001 0.32957881560237473
    vertex 70.73883574014458 4.300000000000001 0.32299304171912824
    vertex 70.54374541812845 4.300000000000001 0.34220776131589786
  endloop
endfacet
facet normal 0.0 1.0 0.0
  outer loop
    vertex 71.34869081681589 5.3 -0.6385775190873324
    vertex 76.93883273619312 5.3 -0.6770069582808717
    vertex 71.73883874409606 5.3 -0.6770069582808717
  endloop
endfacet
facet normal 0.0 1.0 0.0
  outer loop
    vertex 76.93883273619312 5.3 -0.6770069582808717
    vertex 71.34869081681589 5.3 -0.6385775190873324
    vertex 77.32898066347329 5.3 -0.6385775190873324
  endloop
endfacet
facet normal 0.0 1.0 0.0
  outer loop
    vertex 77.32898066347329 5.3 -0.6385775190873324
    vertex 71.34869081681589 5.3 -0.6385775190873324
    vertex 70.9736026611715 5.3 -0.5247660233034451
  endloop
endfacet
facet normal 0.0 1.0 0.0
  outer loop
    vertex 77.32898066347329 5.3 -0.6385775190873324
    vertex 70.9736026611715 5.3 -0.5247660233034451
    vertex 77.70406881911767 5.3 -0.5247660233034451
  endloop
endfacet
facet normal 0.0 1.0 0.0
  outer loop
    vertex 77.70406881911767 5.3 -0.5247660233034451
    vertex 70.9736026611715 5.3 -0.5247660233034451
    vertex 70.62798870463246 5.3 -0.3399461828859622
  endloop
endfacet
facet normal 0.0 1.0 0.0
  outer loop
    vertex 77.70406881911767 5.3 -0.5247660233034451
    vertex 70.62798870463246 5.3 -0.3399461828859622
    vertex 78.04968277565672 5.3 -0.3399461828859622
  endloop
endfacet
facet normal 0.0 1.0 0.0
  outer loop
    vertex 78.04968277565672 5.3 -0.3399461828859622
    vertex 70.62798870463246 5.3 -0.3399461828859622
    vertex 70.32513069772601 5.3 -0.09122052065396688
  endloop
endfacet
facet normal 0.0 1.0 0.0
  outer loop
    vertex 78.04968277565672 5.3 -0.3399461828859622
    vertex 70.32513069772601 5.3 -0.09122052065396688
    vertex 78.35254078256317 5.3 -0.09122052065396688
  endloop
endfacet
facet normal 0.0 1.0 0.0
  outer loop
    vertex 78.35254078256317 5.3 -0.09122052065396688
    vertex 70.32513069772601 5.3 -0.09122052065396688
    vertex 70.07666730381284 5.3 0.21185257567992372
  endloop
endfacet
facet normal 0.0 1.0 0.0
  outer loop
    vertex 78.35254078256317 5.3 -0.09122052065396688
    vertex 70.07666730381284 5.3 0.21185257567992372
    vertex 78.60100417647632 5.3 0.21185257567992372
  endloop
endfacet
facet normal 0.0 1.0 0.0
  outer loop
    vertex 78.60100417647632 5.3 0.21185257567992372
    vertex 70.07666730381284 5.3 0.21185257567992372
    vertex 69.89214683178116 5.3 0.5576261769889486
  endloop
endfacet
facet normal 0.0 1.0 0.0
  outer loop
    vertex 78.60100417647632 5.3 0.21185257567992372
    vertex 69.89214683178116 5.3 0.5576261769889486
    vertex 78.785524648508 5.3 0.5576261769889486
  endloop
endfacet
facet normal 0.0 1.0 0.0
  outer loop
    vertex 78.785524648508 5.3 0.5576261769889486
    vertex 69.89214683178116 5.3 0.5576261769889486
    vertex 69.77866029989089 5.3 0.9328123976868716
  endloop
endfacet
facet normal 0.0 1.0 0.0
  outer loop
    vertex 78.785524648508 5.3 0.5576261769889486
    vertex 69.77866029989089 5.3 0.9328123976868716
    vertex 78.89901118039828 5.3 0.9328123976868716
  endloop
endfacet
facet normal 0.0 1.0 0.0
  outer loop
    vertex 78.89901118039828 5.3 0.9328123976868716
    vertex 69.77866029989089 5.3 0.9328123976868716
    vertex 69.74056893191857 5.3 1.3229930417191282
  endloop
endfacet
facet normal 0.0 1.0 0.0
  outer loop
    vertex 78.89901118039828 5.3 0.9328123976868716
    vertex 69.74056893191857 5.3 1.3229930417191282
    vertex 78.9371025483706 5.3 1.3229930417191282
  endloop
endfacet
facet normal 0.0 1.0 0.0
  outer loop
    vertex 78.9371025483706 5.3 1.3229930417191282
    vertex 69.74056893191857 5.3 1.3229930417191282
    vertex 69.73883574014458 5.3 1.8229930417191267
  endloop
endfacet
facet normal 0.0 1.0 0.0
  outer loop
    vertex 78.9371025483706 5.3 1.3229930417191282
    vertex 69.73883574014458 5.3 1.8229930417191267
    vertex 78.93883574014458 5.3 1.8229930417191267
  endloop
endfacet
facet normal 0.0 -1.0 0.0
  outer loop
    vertex 78.66295593305495 4.300000000000001 0.32957881560237473
    vertex 78.32151917250968 4.300000000000001 0.3991135092078415
    vertex 78.13392606216073 4.300000000000001 0.34220776131589786
  endloop
endfacet
facet normal 0.0 -1.0 0.0
  outer loop
    vertex 78.32151917250968 4.300000000000001 0.3991135092078415
    vertex 78.66295593305495 4.300000000000001 0.32957881560237473
    vertex 78.49440597316419 4.300000000000001 0.491523429416583
  endloop
endfacet
facet normal 0.0 -1.0 0.0
  outer loop
    vertex 78.49440597316419 4.300000000000001 0.491523429416583
    vertex 78.66295593305495 4.300000000000001 0.32957881560237473
    vertex 78.64594252133114 4.300000000000001 0.6158862605325806
  endloop
endfacet
facet normal 0.0 -1.0 0.0
  outer loop
    vertex 78.78445472051104 4.300000000000001 0.5576261769889486
    vertex 78.64594252133114 4.300000000000001 0.6158862605325806
    vertex 78.66295593305495 4.300000000000001 0.32957881560237473
  endloop
endfacet
facet normal 0.0 -1.0 0.0
  outer loop
    vertex 78.64594252133114 4.300000000000001 0.6158862605325806
    vertex 78.78445472051104 4.300000000000001 0.5576261769889486
    vertex 78.77030535244714 4.300000000000001 0.7674228086995258
  endloop
endfacet
facet normal 0.0 -1.0 0.0
  outer loop
    vertex 78.77030535244714 4.300000000000001 0.7674228086995258
    vertex 78.78445472051104 4.300000000000001 0.5576261769889486
    vertex 78.8976161175656 4.300000000000001 0.9328123976868716
  endloop
endfacet
facet normal 0.0 -1.0 0.0
  outer loop
    vertex 78.77030535244714 4.300000000000001 0.7674228086995258
    vertex 78.8976161175656 4.300000000000001 0.9328123976868716
    vertex 78.86271527265588 4.300000000000001 0.9403096093540382
  endloop
endfacet
facet normal 0.0 -1.0 0.0
  outer loop
    vertex 78.86271527265588 4.300000000000001 0.9403096093540382
    vertex 78.8976161175656 4.300000000000001 0.9328123976868716
    vertex 78.91962102054782 4.300000000000001 1.1279027197029998
  endloop
endfacet
facet normal 0.0 -1.0 0.0
  outer loop
    vertex 70.01471554723423 4.300000000000001 0.32957881560237473
    vertex 70.18326550712499 4.300000000000001 0.491523429416583
    vertex 70.03172895895803 4.300000000000001 0.6158862605325806
  endloop
endfacet
facet normal 0.0 -1.0 0.0
  outer loop
    vertex 70.18326550712499 4.300000000000001 0.491523429416583
    vertex 70.01471554723423 4.300000000000001 0.32957881560237473
    vertex 70.3561523077795 4.300000000000001 0.3991135092078415
  endloop
endfacet
facet normal 0.0 -1.0 0.0
  outer loop
    vertex 70.3561523077795 4.300000000000001 0.3991135092078415
    vertex 70.01471554723423 4.300000000000001 0.32957881560237473
    vertex 70.54374541812845 4.300000000000001 0.34220776131589786
  endloop
endfacet
facet normal 0.0 -1.0 0.0
  outer loop
    vertex 70.03172895895803 4.300000000000001 0.6158862605325806
    vertex 69.89321675977814 4.300000000000001 0.5576261769889486
    vertex 70.01471554723423 4.300000000000001 0.32957881560237473
  endloop
endfacet
facet normal 0.0 -1.0 0.0
  outer loop
    vertex 69.89321675977814 4.300000000000001 0.5576261769889486
    vertex 70.03172895895803 4.300000000000001 0.6158862605325806
    vertex 69.90736612784204 4.300000000000001 0.7674228086995258
  endloop
endfacet
facet normal 0.0 -1.0 0.0
  outer loop
    vertex 69.89321675977814 4.300000000000001 0.5576261769889486
    vertex 69.90736612784204 4.300000000000001 0.7674228086995258
    vertex 69.78005536272357 4.300000000000001 0.9328123976868716
  endloop
endfacet
facet normal 0.0 -1.0 0.0
  outer loop
    vertex 69.78005536272357 4.300000000000001 0.9328123976868716
    vertex 69.90736612784204 4.300000000000001 0.7674228086995258
    vertex 69.81495620763329 4.300000000000001 0.9403096093540382
  endloop
endfacet
facet normal 0.0 -1.0 0.0
  outer loop
    vertex 69.78005536272357 4.300000000000001 0.9328123976868716
    vertex 69.81495620763329 4.300000000000001 0.9403096093540382
    vertex 69.75805045974136 4.300000000000001 1.1279027197029998
  endloop
endfacet
facet normal 0.0 1.0 0.0
  outer loop
    vertex 78.66268014569759 -2.2999999999999985 0.32958539916930735
    vertex 78.49440597316419 -2.2999999999999985 0.491523429416583
    vertex 78.64594252133114 -2.2999999999999985 0.6158862605325806
  endloop
endfacet
facet normal 0.0 1.0 0.0
  outer loop
    vertex 78.49440597316419 -2.2999999999999985 0.491523429416583
    vertex 78.66268014569759 -2.2999999999999985 0.32958539916930735
    vertex 78.32151917250968 -2.2999999999999985 0.3991135092078415
  endloop
endfacet
facet normal 0.0 1.0 0.0
  outer loop
    vertex 78.32151917250968 -2.2999999999999985 0.3991135092078415
    vertex 78.66268014569759 -2.2999999999999985 0.32958539916930735
    vertex 78.13392606216073 -2.2999999999999985 0.34220776131589786
  endloop
endfacet
facet normal 0.0 1.0 0.0
  outer loop
    vertex 78.64594252133114 -2.2999999999999985 0.6158862605325806
    vertex 78.7841122475681 -2.2999999999999985 0.5576261769889483
    vertex 78.66268014569759 -2.2999999999999985 0.32958539916930735
  endloop
endfacet
facet normal 0.0 1.0 0.0
  outer loop
    vertex 78.7841122475681 -2.2999999999999985 0.5576261769889483
    vertex 78.64594252133114 -2.2999999999999985 0.6158862605325806
    vertex 78.77030535244714 -2.2999999999999985 0.7674228086995258
  endloop
endfacet
facet normal 0.0 1.0 0.0
  outer loop
    vertex 78.7841122475681 -2.2999999999999985 0.5576261769889483
    vertex 78.77030535244714 -2.2999999999999985 0.7674228086995258
    vertex 78.89716965540383 -2.2999999999999985 0.9328123976868713
  endloop
endfacet
facet normal 0.0 1.0 0.0
  outer loop
    vertex 78.89716965540383 -2.2999999999999985 0.9328123976868713
    vertex 78.77030535244714 -2.2999999999999985 0.7674228086995258
    vertex 78.86271527265588 -2.2999999999999985 0.9403096093540382
  endloop
endfacet
facet normal 0.0 1.0 0.0
  outer loop
    vertex 78.89716965540383 -2.2999999999999985 0.9328123976868713
    vertex 78.86271527265588 -2.2999999999999985 0.9403096093540382
    vertex 78.91962102054782 -2.2999999999999985 1.1279027197029998
  endloop
endfacet
facet normal 0.0 1.0 0.0
  outer loop
    vertex 70.01499133459157 -2.2999999999999985 0.32958539916930735
    vertex 70.3561523077795 -2.2999999999999985 0.3991135092078415
    vertex 70.54374541812845 -2.2999999999999985 0.34220776131589786
  endloop
endfacet
facet normal 0.0 1.0 0.0
  outer loop
    vertex 70.3561523077795 -2.2999999999999985 0.3991135092078415
    vertex 70.01499133459157 -2.2999999999999985 0.32958539916930735
    vertex 70.18326550712499 -2.2999999999999985 0.491523429416583
  endloop
endfacet
facet normal 0.0 1.0 0.0
  outer loop
    vertex 70.18326550712499 -2.2999999999999985 0.491523429416583
    vertex 70.01499133459157 -2.2999999999999985 0.32958539916930735
    vertex 70.03172895895803 -2.2999999999999985 0.6158862605325806
  endloop
endfacet
facet normal 0.0 1.0 0.0
  outer loop
    vertex 69.89355923272106 -2.2999999999999985 0.5576261769889483
    vertex 70.03172895895803 -2.2999999999999985 0.6158862605325806
    vertex 70.01499133459157 -2.2999999999999985 0.32958539916930735
  endloop
endfacet
facet normal 0.0 1.0 0.0
  outer loop
    vertex 70.03172895895803 -2.2999999999999985 0.6158862605325806
    vertex 69.89355923272106 -2.2999999999999985 0.5576261769889483
    vertex 69.90736612784204 -2.2999999999999985 0.7674228086995258
  endloop
endfacet
facet normal 0.0 1.0 0.0
  outer loop
    vertex 69.90736612784204 -2.2999999999999985 0.7674228086995258
    vertex 69.89355923272106 -2.2999999999999985 0.5576261769889483
    vertex 69.78050182488535 -2.2999999999999985 0.9328123976868713
  endloop
endfacet
facet normal 0.0 1.0 0.0
  outer loop
    vertex 69.90736612784204 -2.2999999999999985 0.7674228086995258
    vertex 69.78050182488535 -2.2999999999999985 0.9328123976868713
    vertex 69.81495620763329 -2.2999999999999985 0.9403096093540382
  endloop
endfacet
facet normal 0.0 1.0 0.0
  outer loop
    vertex 69.81495620763329 -2.2999999999999985 0.9403096093540382
    vertex 69.78050182488535 -2.2999999999999985 0.9328123976868713
    vertex 69.75805045974136 -2.2999999999999985 1.1279027197029998
  endloop
endfacet
endsolid belt_tensioner
